<?xml version="1.0" encoding="UTF-8" standalone="no"?>
<!DOCTYPE svg PUBLIC "-//W3C//DTD SVG 1.1//EN"
 "http://www.w3.org/Graphics/SVG/1.1/DTD/svg11.dtd">
<!-- Generated by graphviz version 2.34.0 (20140110.0949)
 -->
<!-- Title: GradleSetup Pages: 1 -->
<svg width="1001pt" height="752pt"
 viewBox="0.00 0.00 1001.00 752.00" xmlns="http://www.w3.org/2000/svg" xmlns:xlink="http://www.w3.org/1999/xlink">
<g id="graph0" class="graph" transform="scale(1 1) rotate(0) translate(4 748)">
<title>GradleSetup</title>
<polygon fill="white" stroke="white" points="-4,4 -4,-748 997,-748 997,4 -4,4"/>
<text text-anchor="middle" x="61" y="-728.8" font-family="Times,serif" font-size="14.00">Gradle Build Setup</text>
<g id="clust1" class="cluster"><title>cluster1</title>
<polygon fill="lightgrey" stroke="black" points="8,-8 8,-713 679,-713 679,-8 8,-8"/>
<text text-anchor="middle" x="92.5" y="-15.8" font-family="Times,serif" font-size="14.00">Java Projects / Bnd Projects</text>
</g>
<g id="clust2" class="cluster"><title>cluster101</title>
</g>
<g id="clust3" class="cluster"><title>cluster102</title>
</g>
<g id="clust4" class="cluster"><title>cluster103</title>
</g>
<g id="clust5" class="cluster"><title>cluster104</title>
</g>
<g id="clust6" class="cluster"><title>cluster105</title>
</g>
<g id="clust7" class="cluster"><title>cluster106</title>
</g>
<g id="clust8" class="cluster"><title>cluster107</title>
</g>
<g id="clust9" class="cluster"><title>cluster108</title>
</g>
<g id="clust10" class="cluster"><title>cluster109</title>
</g>
<g id="clust11" class="cluster"><title>cluster110</title>
</g>
<g id="clust12" class="cluster"><title>cluster2</title>
<polygon fill="lightgrey" stroke="black" points="687,-387 687,-622 985,-622 985,-387 687,-387"/>
<text text-anchor="middle" x="727.5" y="-394.8" font-family="Times,serif" font-size="14.00">All Projects</text>
</g>
<g id="clust13" class="cluster"><title>cluster201</title>
</g>
<g id="clust14" class="cluster"><title>cluster202</title>
</g>
<g id="clust15" class="cluster"><title>cluster3</title>
<polygon fill="lightgrey" stroke="black" points="761,-630 761,-705 911,-705 911,-630 761,-630"/>
<text text-anchor="middle" x="803.5" y="-637.8" font-family="Times,serif" font-size="14.00">Root Project</text>
</g>
<!-- compileJava -->
<g id="node1" class="node"><title>compileJava</title>
<polygon fill="lightcyan" stroke="black" points="378.25,-697 293.75,-697 293.75,-661 378.25,-661 378.25,-697"/>
<text text-anchor="middle" x="336" y="-675.3" font-family="Times,serif" font-size="14.00">compileJava</text>
</g>
<!-- classes -->
<g id="node3" class="node"><title>classes</title>
<polygon fill="lightcyan" stroke="black" points="409,-606 355,-606 355,-570 409,-570 409,-606"/>
<text text-anchor="middle" x="382" y="-584.3" font-family="Times,serif" font-size="14.00">classes</text>
</g>
<!-- compileJava&#45;&gt;classes -->
<g id="edge1" class="edge"><title>compileJava&#45;&gt;classes</title>
<path fill="none" stroke="black" d="M344.869,-660.84C351.551,-647.912 360.831,-629.958 368.442,-615.232"/>
<polygon fill="black" stroke="black" points="371.676,-616.598 373.158,-606.107 365.457,-613.384 371.676,-616.598"/>
</g>
<!-- processResources -->
<g id="node2" class="node"><title>processResources</title>
<polygon fill="lightcyan" stroke="black" points="509.25,-697 396.75,-697 396.75,-661 509.25,-661 509.25,-697"/>
<text text-anchor="middle" x="453" y="-675.3" font-family="Times,serif" font-size="14.00">processResources</text>
</g>
<!-- processResources&#45;&gt;classes -->
<g id="edge2" class="edge"><title>processResources&#45;&gt;classes</title>
<path fill="none" stroke="black" d="M439.31,-660.84C428.702,-647.543 413.852,-628.927 401.927,-613.978"/>
<polygon fill="black" stroke="black" points="404.62,-611.742 395.647,-606.107 399.148,-616.107 404.62,-611.742"/>
</g>
<!-- jar -->
<g id="node4" class="node"><title>jar</title>
<polygon fill="cyan" stroke="black" points="363,-534 309,-534 309,-498 363,-498 363,-534"/>
<text text-anchor="middle" x="336" y="-512.3" font-family="Times,serif" font-size="14.00">jar</text>
</g>
<!-- classes&#45;&gt;jar -->
<g id="edge4" class="edge"><title>classes&#45;&gt;jar</title>
<path fill="none" stroke="black" d="M370.629,-569.697C365.282,-561.559 358.796,-551.689 352.889,-542.701"/>
<polygon fill="black" stroke="black" points="355.657,-540.539 347.24,-534.104 349.807,-544.384 355.657,-540.539"/>
</g>
<!-- compileTestJava -->
<g id="node5" class="node"><title>compileTestJava</title>
<polygon fill="lightcyan" stroke="black" points="663,-534 555,-534 555,-498 663,-498 663,-534"/>
<text text-anchor="middle" x="609" y="-512.3" font-family="Times,serif" font-size="14.00">compileTestJava</text>
</g>
<!-- classes&#45;&gt;compileTestJava -->
<g id="edge3" class="edge"><title>classes&#45;&gt;compileTestJava</title>
<path fill="none" stroke="black" d="M399.959,-569.924C403.996,-566.856 408.442,-564.002 413,-562 467.727,-537.956 488.288,-557.57 546,-542 550.722,-540.726 555.571,-539.207 560.382,-537.556"/>
<polygon fill="black" stroke="black" points="561.94,-540.714 570.15,-534.017 559.555,-534.132 561.94,-540.714"/>
</g>
<!-- test -->
<g id="node8" class="node"><title>test</title>
<polygon fill="lightcyan" stroke="black" points="541,-371 487,-371 487,-335 541,-335 541,-371"/>
<text text-anchor="middle" x="514" y="-349.3" font-family="Times,serif" font-size="14.00">test</text>
</g>
<!-- classes&#45;&gt;test -->
<g id="edge5" class="edge"><title>classes&#45;&gt;test</title>
<path fill="none" stroke="black" d="M381.366,-569.954C379.828,-524.05 376.863,-400.383 389,-387 398.036,-377.036 435.966,-382.326 449,-379 458.378,-376.607 468.246,-373.266 477.381,-369.804"/>
<polygon fill="black" stroke="black" points="478.924,-372.958 486.948,-366.039 476.361,-366.444 478.924,-372.958"/>
</g>
<!-- jar&#45;&gt;compileJava -->
<g id="edge21" class="edge"><title>jar&#45;&gt;compileJava</title>
<path fill="none" stroke="red" d="M336,-534.106C336,-561.866 336,-616.974 336,-650.354"/>
<polygon fill="red" stroke="red" points="332.5,-650.77 336,-660.77 339.5,-650.77 332.5,-650.77"/>
</g>
<!-- uploadArchives -->
<g id="node9" class="node"><title>uploadArchives</title>
<polygon fill="lightcyan" stroke="black" points="437,-371 335,-371 335,-335 437,-335 437,-371"/>
<text text-anchor="middle" x="386" y="-349.3" font-family="Times,serif" font-size="14.00">uploadArchives</text>
</g>
<!-- jar&#45;&gt;uploadArchives -->
<g id="edge8" class="edge"><title>jar&#45;&gt;uploadArchives</title>
<path fill="none" stroke="black" d="M341.351,-497.77C350.035,-469.808 367.263,-414.333 377.595,-381.064"/>
<polygon fill="black" stroke="black" points="381.064,-381.694 380.688,-371.106 374.379,-379.618 381.064,-381.694"/>
</g>
<!-- assemble -->
<g id="node10" class="node"><title>assemble</title>
<polygon fill="lightcyan" stroke="black" points="316.25,-371 249.75,-371 249.75,-335 316.25,-335 316.25,-371"/>
<text text-anchor="middle" x="283" y="-349.3" font-family="Times,serif" font-size="14.00">assemble</text>
</g>
<!-- jar&#45;&gt;assemble -->
<g id="edge9" class="edge"><title>jar&#45;&gt;assemble</title>
<path fill="none" stroke="black" d="M330.328,-497.77C321.083,-469.687 302.703,-413.853 291.768,-380.633"/>
<polygon fill="black" stroke="black" points="295.083,-379.51 288.631,-371.106 288.434,-381.699 295.083,-379.51"/>
</g>
<!-- testClasses -->
<g id="node7" class="node"><title>testClasses</title>
<polygon fill="lightcyan" stroke="black" points="552,-462 476,-462 476,-426 552,-426 552,-462"/>
<text text-anchor="middle" x="514" y="-440.3" font-family="Times,serif" font-size="14.00">testClasses</text>
</g>
<!-- compileTestJava&#45;&gt;testClasses -->
<g id="edge6" class="edge"><title>compileTestJava&#45;&gt;testClasses</title>
<path fill="none" stroke="black" d="M585.517,-497.697C573.437,-488.796 558.546,-477.823 545.484,-468.199"/>
<polygon fill="black" stroke="black" points="547.34,-465.219 537.213,-462.104 543.187,-470.854 547.34,-465.219"/>
</g>
<!-- processTestResources -->
<g id="node6" class="node"><title>processTestResources</title>
<polygon fill="lightcyan" stroke="black" points="537,-534 401,-534 401,-498 537,-498 537,-534"/>
<text text-anchor="middle" x="469" y="-512.3" font-family="Times,serif" font-size="14.00">processTestResources</text>
</g>
<!-- processTestResources&#45;&gt;testClasses -->
<g id="edge7" class="edge"><title>processTestResources&#45;&gt;testClasses</title>
<path fill="none" stroke="black" d="M480.124,-497.697C485.355,-489.559 491.7,-479.689 497.478,-470.701"/>
<polygon fill="black" stroke="black" points="500.541,-472.409 503.004,-462.104 494.653,-468.623 500.541,-472.409"/>
</g>
<!-- testClasses&#45;&gt;test -->
<g id="edge10" class="edge"><title>testClasses&#45;&gt;test</title>
<path fill="none" stroke="black" d="M514,-425.84C514,-413.281 514,-395.979 514,-381.502"/>
<polygon fill="black" stroke="black" points="517.5,-381.107 514,-371.107 510.5,-381.107 517.5,-381.107"/>
</g>
<!-- check -->
<g id="node11" class="node"><title>check</title>
<polygon fill="cyan" stroke="black" points="431,-227 377,-227 377,-191 431,-191 431,-227"/>
<text text-anchor="middle" x="404" y="-205.3" font-family="Times,serif" font-size="14.00">check</text>
</g>
<!-- test&#45;&gt;check -->
<g id="edge13" class="edge"><title>test&#45;&gt;check</title>
<path fill="none" stroke="black" d="M524.513,-334.932C535.806,-314.167 549.992,-278.924 533,-255 512.359,-225.939 471.497,-215.49 441.268,-211.816"/>
<polygon fill="black" stroke="black" points="441.373,-208.309 431.07,-210.78 440.665,-215.273 441.373,-208.309"/>
</g>
<!-- findbugsTest -->
<g id="node21" class="node"><title>findbugsTest</title>
<polygon fill="orange" stroke="black" points="520.25,-299 433.75,-299 433.75,-263 520.25,-263 520.25,-299"/>
<text text-anchor="middle" x="477" y="-277.3" font-family="Times,serif" font-size="14.00">findbugsTest</text>
</g>
<!-- test&#45;&gt;findbugsTest -->
<g id="edge30" class="edge"><title>test&#45;&gt;findbugsTest</title>
<path fill="none" stroke="black" d="M504.854,-334.697C500.597,-326.644 495.444,-316.894 490.734,-307.982"/>
<polygon fill="black" stroke="black" points="493.808,-306.31 486.041,-299.104 487.62,-309.581 493.808,-306.31"/>
</g>
<!-- jacocoTestReport -->
<g id="node27" class="node"><title>jacocoTestReport</title>
<polygon fill="orange" stroke="black" points="671,-299 559,-299 559,-263 671,-263 671,-299"/>
<text text-anchor="middle" x="615" y="-277.3" font-family="Times,serif" font-size="14.00">jacocoTestReport</text>
</g>
<!-- test&#45;&gt;jacocoTestReport -->
<g id="edge33" class="edge"><title>test&#45;&gt;jacocoTestReport</title>
<path fill="none" stroke="black" d="M538.707,-334.876C551.669,-325.893 567.728,-314.763 581.765,-305.034"/>
<polygon fill="black" stroke="black" points="583.972,-307.763 590.198,-299.19 579.985,-302.009 583.972,-307.763"/>
</g>
<!-- assemble&#45;&gt;check -->
<g id="edge12" class="edge"><title>assemble&#45;&gt;check</title>
<path fill="none" stroke="black" d="M286.053,-334.616C290.649,-310.112 299.89,-267.054 310,-255 324.621,-237.567 347.56,-226.402 367.117,-219.554"/>
<polygon fill="black" stroke="black" points="368.256,-222.865 376.683,-216.444 366.091,-216.208 368.256,-222.865"/>
</g>
<!-- release -->
<g id="node13" class="node"><title>release</title>
<polygon fill="cyan" stroke="black" points="118,-299 64,-299 64,-263 118,-263 118,-299"/>
<text text-anchor="middle" x="91" y="-277.3" font-family="Times,serif" font-size="14.00">release</text>
</g>
<!-- assemble&#45;&gt;release -->
<g id="edge22" class="edge"><title>assemble&#45;&gt;release</title>
<path fill="none" stroke="black" d="M249.688,-341.491C222.638,-332.776 183.605,-319.784 150,-307 142.78,-304.253 135.136,-301.157 127.829,-298.104"/>
<polygon fill="black" stroke="black" points="128.719,-294.68 118.146,-294.003 125.989,-301.125 128.719,-294.68"/>
</g>
<!-- exportX -->
<g id="node15" class="node"><title>exportX</title>
<polygon fill="cyan" stroke="black" points="263.25,-299 166.75,-299 162.75,-295 162.75,-263 259.25,-263 263.25,-267 263.25,-299"/>
<polyline fill="none" stroke="black" points="259.25,-295 162.75,-295 "/>
<polyline fill="none" stroke="black" points="259.25,-295 259.25,-263 "/>
<polyline fill="none" stroke="black" points="259.25,-295 263.25,-299 "/>
<text text-anchor="middle" x="213" y="-277.3" font-family="Times,serif" font-size="14.00">export.&lt;name&gt;</text>
</g>
<!-- assemble&#45;&gt;exportX -->
<g id="edge23" class="edge"><title>assemble&#45;&gt;exportX</title>
<path fill="none" stroke="black" d="M265.697,-334.697C257.135,-326.135 246.656,-315.656 237.304,-306.304"/>
<polygon fill="black" stroke="black" points="239.65,-303.701 230.104,-299.104 234.701,-308.65 239.65,-303.701"/>
</g>
<!-- build -->
<g id="node17" class="node"><title>build</title>
<polygon fill="lightcyan" stroke="black" points="310,-155 256,-155 256,-119 310,-119 310,-155"/>
<text text-anchor="middle" x="283" y="-133.3" font-family="Times,serif" font-size="14.00">build</text>
</g>
<!-- assemble&#45;&gt;build -->
<g id="edge11" class="edge"><title>assemble&#45;&gt;build</title>
<path fill="none" stroke="black" d="M283,-334.849C283,-297.832 283,-210.181 283,-165.386"/>
<polygon fill="black" stroke="black" points="286.5,-165.232 283,-155.232 279.5,-165.232 286.5,-165.232"/>
</g>
<!-- findbugsMain -->
<g id="node20" class="node"><title>findbugsMain</title>
<polygon fill="orange" stroke="black" points="415.25,-299 322.75,-299 322.75,-263 415.25,-263 415.25,-299"/>
<text text-anchor="middle" x="369" y="-277.3" font-family="Times,serif" font-size="14.00">findbugsMain</text>
</g>
<!-- assemble&#45;&gt;findbugsMain -->
<g id="edge29" class="edge"><title>assemble&#45;&gt;findbugsMain</title>
<path fill="none" stroke="black" d="M304.258,-334.697C315.089,-325.881 328.418,-315.032 340.16,-305.474"/>
<polygon fill="black" stroke="black" points="342.44,-308.132 347.986,-299.104 338.021,-302.703 342.44,-308.132"/>
</g>
<!-- checkNeeded -->
<g id="node12" class="node"><title>checkNeeded</title>
<polygon fill="cyan" stroke="black" points="457.25,-155 368.75,-155 368.75,-119 457.25,-119 457.25,-155"/>
<text text-anchor="middle" x="413" y="-133.3" font-family="Times,serif" font-size="14.00">checkNeeded</text>
</g>
<!-- check&#45;&gt;checkNeeded -->
<g id="edge14" class="edge"><title>check&#45;&gt;checkNeeded</title>
<path fill="none" stroke="black" d="M406.225,-190.697C407.217,-182.983 408.408,-173.712 409.514,-165.112"/>
<polygon fill="black" stroke="black" points="412.997,-165.469 410.801,-155.104 406.054,-164.576 412.997,-165.469"/>
</g>
<!-- check&#45;&gt;build -->
<g id="edge16" class="edge"><title>check&#45;&gt;build</title>
<path fill="none" stroke="black" d="M376.845,-192.291C359.72,-182.383 337.411,-169.477 318.841,-158.734"/>
<polygon fill="black" stroke="black" points="320.473,-155.635 310.064,-153.657 316.967,-161.694 320.473,-155.635"/>
</g>
<!-- checkNeeded&#45;&gt;checkNeeded -->
<g id="edge15" class="edge"><title>checkNeeded&#45;&gt;checkNeeded</title>
<path fill="none" stroke="red" d="M457.306,-150.203C467.507,-149.065 475,-144.664 475,-137 475,-132.09 471.925,-128.52 467.032,-126.288"/>
<polygon fill="red" stroke="red" points="467.862,-122.888 457.306,-123.797 466.125,-129.669 467.862,-122.888"/>
</g>
<!-- releaseNeeded -->
<g id="node14" class="node"><title>releaseNeeded</title>
<polygon fill="cyan" stroke="black" points="119.25,-227 24.75,-227 24.75,-191 119.25,-191 119.25,-227"/>
<text text-anchor="middle" x="72" y="-205.3" font-family="Times,serif" font-size="14.00">releaseNeeded</text>
</g>
<!-- release&#45;&gt;releaseNeeded -->
<g id="edge25" class="edge"><title>release&#45;&gt;releaseNeeded</title>
<path fill="none" stroke="black" d="M86.3034,-262.697C84.1866,-254.898 81.638,-245.509 79.2822,-236.829"/>
<polygon fill="black" stroke="black" points="82.64,-235.838 76.6426,-227.104 75.8844,-237.672 82.64,-235.838"/>
</g>
<!-- releaseNeeded&#45;&gt;releaseNeeded -->
<g id="edge26" class="edge"><title>releaseNeeded&#45;&gt;releaseNeeded</title>
<path fill="none" stroke="red" d="M119.326,-222.101C129.571,-220.82 137,-216.453 137,-209 137,-204.225 133.951,-200.717 129.066,-198.476"/>
<polygon fill="red" stroke="red" points="129.889,-195.073 119.326,-195.899 128.098,-201.84 129.889,-195.073"/>
</g>
<!-- export -->
<g id="node16" class="node"><title>export</title>
<polygon fill="cyan" stroke="black" points="240,-227 186,-227 186,-191 240,-191 240,-227"/>
<text text-anchor="middle" x="213" y="-205.3" font-family="Times,serif" font-size="14.00">export</text>
</g>
<!-- exportX&#45;&gt;export -->
<g id="edge24" class="edge"><title>exportX&#45;&gt;export</title>
<path fill="none" stroke="black" d="M213,-262.697C213,-254.983 213,-245.712 213,-237.112"/>
<polygon fill="black" stroke="black" points="216.5,-237.104 213,-227.104 209.5,-237.104 216.5,-237.104"/>
</g>
<!-- buildDependents -->
<g id="node18" class="node"><title>buildDependents</title>
<polygon fill="lightcyan" stroke="black" points="204,-83 96,-83 96,-47 204,-47 204,-83"/>
<text text-anchor="middle" x="150" y="-61.3" font-family="Times,serif" font-size="14.00">buildDependents</text>
</g>
<!-- build&#45;&gt;buildDependents -->
<g id="edge17" class="edge"><title>build&#45;&gt;buildDependents</title>
<path fill="none" stroke="black" d="M255.765,-121.666C237.228,-111.91 212.351,-98.8161 191.38,-87.7789"/>
<polygon fill="black" stroke="black" points="192.839,-84.5919 182.36,-83.0316 189.579,-90.7864 192.839,-84.5919"/>
</g>
<!-- buildNeeded -->
<g id="node19" class="node"><title>buildNeeded</title>
<polygon fill="lightcyan" stroke="black" points="326,-83 240,-83 240,-47 326,-47 326,-83"/>
<text text-anchor="middle" x="283" y="-61.3" font-family="Times,serif" font-size="14.00">buildNeeded</text>
</g>
<!-- build&#45;&gt;buildNeeded -->
<g id="edge19" class="edge"><title>build&#45;&gt;buildNeeded</title>
<path fill="none" stroke="black" d="M283,-118.697C283,-110.983 283,-101.712 283,-93.1124"/>
<polygon fill="black" stroke="black" points="286.5,-93.1043 283,-83.1043 279.5,-93.1044 286.5,-93.1043"/>
</g>
<!-- buildDependents&#45;&gt;buildDependents -->
<g id="edge18" class="edge"><title>buildDependents&#45;&gt;buildDependents</title>
<path fill="none" stroke="yellow" d="M204.007,-77.8993C214.529,-76.4013 222,-72.1016 222,-65 222,-60.4506 218.934,-57.051 213.964,-54.8012"/>
<polygon fill="yellow" stroke="yellow" points="214.575,-51.3406 204.007,-52.1007 212.742,-58.0965 214.575,-51.3406"/>
</g>
<!-- buildNeeded&#45;&gt;buildNeeded -->
<g id="edge20" class="edge"><title>buildNeeded&#45;&gt;buildNeeded</title>
<path fill="none" stroke="red" d="M326.036,-78.2619C336.355,-77.2253 344,-72.8047 344,-65 344,-60.0001 340.862,-56.3891 335.894,-54.1668"/>
<polygon fill="red" stroke="red" points="336.583,-50.7319 326.036,-51.7381 334.909,-57.5287 336.583,-50.7319"/>
</g>
<!-- findbugsMain&#45;&gt;check -->
<g id="edge31" class="edge"><title>findbugsMain&#45;&gt;check</title>
<path fill="none" stroke="green" d="M377.652,-262.697C381.636,-254.728 386.45,-245.1 390.868,-236.264"/>
<polygon fill="green" stroke="green" points="394.106,-237.614 395.448,-227.104 387.845,-234.483 394.106,-237.614"/>
</g>
<!-- findbugsTest&#45;&gt;check -->
<g id="edge32" class="edge"><title>findbugsTest&#45;&gt;check</title>
<path fill="none" stroke="green" d="M458.955,-262.697C449.938,-254.05 438.882,-243.449 429.057,-234.027"/>
<polygon fill="green" stroke="green" points="431.478,-231.499 421.837,-227.104 426.633,-236.552 431.478,-231.499"/>
</g>
<!-- javadoc -->
<g id="node22" class="node"><title>javadoc</title>
<polygon fill="lightcyan" stroke="black" points="589.25,-697 530.75,-697 530.75,-661 589.25,-661 589.25,-697"/>
<text text-anchor="middle" x="560" y="-675.3" font-family="Times,serif" font-size="14.00">javadoc</text>
</g>
<!-- clean -->
<g id="node23" class="node"><title>clean</title>
<polygon fill="cyan" stroke="black" points="668,-697 614,-697 614,-661 668,-661 668,-697"/>
<text text-anchor="middle" x="641" y="-675.3" font-family="Times,serif" font-size="14.00">clean</text>
</g>
<!-- cleanNeeded -->
<g id="node24" class="node"><title>cleanNeeded</title>
<polygon fill="cyan" stroke="black" points="653,-606 567,-606 567,-570 653,-570 653,-606"/>
<text text-anchor="middle" x="610" y="-584.3" font-family="Times,serif" font-size="14.00">cleanNeeded</text>
</g>
<!-- clean&#45;&gt;cleanNeeded -->
<g id="edge27" class="edge"><title>clean&#45;&gt;cleanNeeded</title>
<path fill="none" stroke="black" d="M635.023,-660.84C630.563,-648.035 624.385,-630.299 619.284,-615.654"/>
<polygon fill="black" stroke="black" points="622.553,-614.4 615.959,-606.107 615.943,-616.702 622.553,-614.4"/>
</g>
<!-- cleanAll -->
<g id="node29" class="node"><title>cleanAll</title>
<polygon fill="orange" stroke="black" points="773,-606 719,-606 719,-570 773,-570 773,-606"/>
<text text-anchor="middle" x="746" y="-584.3" font-family="Times,serif" font-size="14.00">clean</text>
</g>
<!-- clean&#45;&gt;cleanAll -->
<g id="edge34" class="edge"><title>clean&#45;&gt;cleanAll</title>
<path fill="none" stroke="blue" d="M661.245,-660.84C677.369,-647.173 700.12,-627.889 717.991,-612.741"/>
<polygon fill="blue" stroke="blue" points="720.452,-615.243 725.817,-606.107 715.926,-609.903 720.452,-615.243"/>
</g>
<!-- cleanNeeded&#45;&gt;cleanNeeded -->
<g id="edge28" class="edge"><title>cleanNeeded&#45;&gt;cleanNeeded</title>
<path fill="none" stroke="red" d="M653.036,-601.262C663.355,-600.225 671,-595.805 671,-588 671,-583 667.862,-579.389 662.894,-577.167"/>
<polygon fill="red" stroke="red" points="663.583,-573.732 653.036,-574.738 661.909,-580.529 663.583,-573.732"/>
</g>
<!-- cleanAllNeeded -->
<g id="node30" class="node"><title>cleanAllNeeded</title>
<polygon fill="orange" stroke="black" points="789,-534 703,-534 703,-498 789,-498 789,-534"/>
<text text-anchor="middle" x="746" y="-512.3" font-family="Times,serif" font-size="14.00">cleanNeeded</text>
</g>
<!-- cleanNeeded&#45;&gt;cleanAllNeeded -->
<g id="edge35" class="edge"><title>cleanNeeded&#45;&gt;cleanAllNeeded</title>
<path fill="none" stroke="blue" d="M643.269,-569.876C661.463,-560.512 684.191,-548.814 703.64,-538.803"/>
<polygon fill="blue" stroke="blue" points="705.313,-541.878 712.603,-534.19 702.11,-535.654 705.313,-541.878"/>
</g>
<!-- echo -->
<g id="node25" class="node"><title>echo</title>
<polygon fill="cyan" stroke="black" points="251,-697 197,-697 197,-661 251,-661 251,-697"/>
<text text-anchor="middle" x="224" y="-675.3" font-family="Times,serif" font-size="14.00">echo</text>
</g>
<!-- bndproperties -->
<g id="node26" class="node"><title>bndproperties</title>
<polygon fill="cyan" stroke="black" points="131.25,-697 40.75,-697 40.75,-661 131.25,-661 131.25,-697"/>
<text text-anchor="middle" x="86" y="-675.3" font-family="Times,serif" font-size="14.00">bndproperties</text>
</g>
<!-- index -->
<g id="node28" class="node"><title>index</title>
<polygon fill="orange" stroke="black" points="969,-606 915,-606 915,-570 969,-570 969,-606"/>
<text text-anchor="middle" x="942" y="-584.3" font-family="Times,serif" font-size="14.00">index</text>
</g>
<!-- cleanAll&#45;&gt;cleanAllNeeded -->
<g id="edge36" class="edge"><title>cleanAll&#45;&gt;cleanAllNeeded</title>
<path fill="none" stroke="black" d="M746,-569.697C746,-561.983 746,-552.712 746,-544.112"/>
<polygon fill="black" stroke="black" points="749.5,-544.104 746,-534.104 742.5,-544.104 749.5,-544.104"/>
</g>
<!-- distclean -->
<g id="node31" class="node"><title>distclean</title>
<polygon fill="orange" stroke="black" points="890.25,-534 825.75,-534 825.75,-498 890.25,-498 890.25,-534"/>
<text text-anchor="middle" x="858" y="-512.3" font-family="Times,serif" font-size="14.00">distclean</text>
</g>
<!-- cleanAll&#45;&gt;distclean -->
<g id="edge37" class="edge"><title>cleanAll&#45;&gt;distclean</title>
<path fill="none" stroke="black" d="M773.112,-570.055C787.861,-560.837 806.29,-549.319 822.206,-539.371"/>
<polygon fill="black" stroke="black" points="824.124,-542.3 830.749,-534.032 820.414,-536.364 824.124,-542.3"/>
</g>
<!-- cleanAllNeeded&#45;&gt;cleanAllNeeded -->
<g id="edge38" class="edge"><title>cleanAllNeeded&#45;&gt;cleanAllNeeded</title>
<path fill="none" stroke="red" d="M789.036,-529.262C799.355,-528.225 807,-523.805 807,-516 807,-511 803.862,-507.389 798.894,-505.167"/>
<polygon fill="red" stroke="red" points="799.583,-501.732 789.036,-502.738 797.909,-508.529 799.583,-501.732"/>
</g>
<!-- distcleanNeeded -->
<g id="node32" class="node"><title>distcleanNeeded</title>
<polygon fill="orange" stroke="black" points="841,-462 735,-462 735,-426 841,-426 841,-462"/>
<text text-anchor="middle" x="788" y="-440.3" font-family="Times,serif" font-size="14.00">distcleanNeeded</text>
</g>
<!-- cleanAllNeeded&#45;&gt;distcleanNeeded -->
<g id="edge39" class="edge"><title>cleanAllNeeded&#45;&gt;distcleanNeeded</title>
<path fill="none" stroke="black" d="M756.382,-497.697C761.265,-489.559 767.187,-479.689 772.579,-470.701"/>
<polygon fill="black" stroke="black" points="775.594,-472.48 777.737,-462.104 769.591,-468.879 775.594,-472.48"/>
</g>
<!-- distclean&#45;&gt;distcleanNeeded -->
<g id="edge40" class="edge"><title>distclean&#45;&gt;distcleanNeeded</title>
<path fill="none" stroke="black" d="M840.697,-497.697C832.135,-489.135 821.656,-478.656 812.304,-469.304"/>
<polygon fill="black" stroke="black" points="814.65,-466.701 805.104,-462.104 809.701,-471.65 814.65,-466.701"/>
</g>
<!-- distcleanNeeded&#45;&gt;distcleanNeeded -->
<g id="edge41" class="edge"><title>distcleanNeeded&#45;&gt;distcleanNeeded</title>
<path fill="none" stroke="red" d="M841.257,-456.899C851.632,-455.401 859,-451.102 859,-444 859,-439.451 855.976,-436.051 851.075,-433.801"/>
<polygon fill="red" stroke="red" points="851.827,-430.378 841.257,-431.101 849.971,-437.128 851.827,-430.378"/>
</g>
<!-- init -->
<g id="node33" class="node"><title>init</title>
<polygon fill="lightcyan" stroke="black" points="903,-697 849,-697 849,-661 903,-661 903,-697"/>
<text text-anchor="middle" x="876" y="-675.3" font-family="Times,serif" font-size="14.00">init</text>
</g>
<!-- wrapper -->
<g id="node34" class="node"><title>wrapper</title>
<polygon fill="orange" stroke="black" points="830.25,-697 769.75,-697 769.75,-661 830.25,-661 830.25,-697"/>
<text text-anchor="middle" x="800" y="-675.3" font-family="Times,serif" font-size="14.00">wrapper</text>
</g>
</g>
</svg>
