<?xml version="1.0" encoding="UTF-8" standalone="no"?>
<!DOCTYPE svg PUBLIC "-//W3C//DTD SVG 1.1//EN"
 "http://www.w3.org/Graphics/SVG/1.1/DTD/svg11.dtd">
<!-- Generated by graphviz version 2.34.0 (20140110.0949)
 -->
<!-- Title: GradleSetup Pages: 1 -->
<svg width="894pt" height="752pt"
 viewBox="0.00 0.00 894.00 752.00" xmlns="http://www.w3.org/2000/svg" xmlns:xlink="http://www.w3.org/1999/xlink">
<g id="graph0" class="graph" transform="scale(1 1) rotate(0) translate(4 748)">
<title>GradleSetup</title>
<polygon fill="white" stroke="white" points="-4,4 -4,-748 890,-748 890,4 -4,4"/>
<text text-anchor="middle" x="61" y="-728.8" font-family="Times,serif" font-size="14.00">Gradle Build Setup</text>
<g id="clust1" class="cluster"><title>cluster1</title>
<polygon fill="lightgrey" stroke="black" points="8,-8 8,-713 572,-713 572,-8 8,-8"/>
<text text-anchor="middle" x="92.5" y="-15.8" font-family="Times,serif" font-size="14.00">Java Projects / Bnd Projects</text>
</g>
<g id="clust2" class="cluster"><title>cluster101</title>
</g>
<g id="clust3" class="cluster"><title>cluster102</title>
</g>
<g id="clust4" class="cluster"><title>cluster103</title>
</g>
<g id="clust5" class="cluster"><title>cluster104</title>
</g>
<g id="clust6" class="cluster"><title>cluster105</title>
</g>
<g id="clust7" class="cluster"><title>cluster106</title>
</g>
<g id="clust8" class="cluster"><title>cluster107</title>
</g>
<g id="clust9" class="cluster"><title>cluster108</title>
</g>
<g id="clust10" class="cluster"><title>cluster109</title>
</g>
<g id="clust11" class="cluster"><title>cluster110</title>
</g>
<g id="clust12" class="cluster"><title>cluster2</title>
<polygon fill="lightgrey" stroke="black" points="580,-387 580,-622 878,-622 878,-387 580,-387"/>
<text text-anchor="middle" x="620.5" y="-394.8" font-family="Times,serif" font-size="14.00">All Projects</text>
</g>
<g id="clust13" class="cluster"><title>cluster201</title>
</g>
<g id="clust14" class="cluster"><title>cluster202</title>
</g>
<g id="clust15" class="cluster"><title>cluster3</title>
<polygon fill="lightgrey" stroke="black" points="654,-630 654,-705 804,-705 804,-630 654,-630"/>
<text text-anchor="middle" x="696.5" y="-637.8" font-family="Times,serif" font-size="14.00">Root Project</text>
</g>
<!-- compileJava -->
<g id="node1" class="node"><title>compileJava</title>
<polygon fill="lightcyan" stroke="black" points="283.25,-697 198.75,-697 198.75,-661 283.25,-661 283.25,-697"/>
<text text-anchor="middle" x="241" y="-675.3" font-family="Times,serif" font-size="14.00">compileJava</text>
</g>
<!-- classes -->
<g id="node3" class="node"><title>classes</title>
<polygon fill="lightcyan" stroke="black" points="302,-606 248,-606 248,-570 302,-570 302,-606"/>
<text text-anchor="middle" x="275" y="-584.3" font-family="Times,serif" font-size="14.00">classes</text>
</g>
<!-- compileJava&#45;&gt;classes -->
<g id="edge1" class="edge"><title>compileJava&#45;&gt;classes</title>
<path fill="none" stroke="black" d="M247.556,-660.84C252.447,-648.035 259.223,-630.299 264.818,-615.654"/>
<polygon fill="black" stroke="black" points="268.165,-616.698 268.465,-606.107 261.626,-614.2 268.165,-616.698"/>
</g>
<!-- processResources -->
<g id="node2" class="node"><title>processResources</title>
<polygon fill="lightcyan" stroke="black" points="414.25,-697 301.75,-697 301.75,-661 414.25,-661 414.25,-697"/>
<text text-anchor="middle" x="358" y="-675.3" font-family="Times,serif" font-size="14.00">processResources</text>
</g>
<!-- processResources&#45;&gt;classes -->
<g id="edge2" class="edge"><title>processResources&#45;&gt;classes</title>
<path fill="none" stroke="black" d="M341.997,-660.84C329.481,-647.419 311.914,-628.582 297.908,-613.564"/>
<polygon fill="black" stroke="black" points="300.334,-611.034 290.954,-606.107 295.215,-615.808 300.334,-611.034"/>
</g>
<!-- jar -->
<g id="node4" class="node"><title>jar</title>
<polygon fill="cyan" stroke="black" points="256,-534 202,-534 202,-498 256,-498 256,-534"/>
<text text-anchor="middle" x="229" y="-512.3" font-family="Times,serif" font-size="14.00">jar</text>
</g>
<!-- classes&#45;&gt;jar -->
<g id="edge4" class="edge"><title>classes&#45;&gt;jar</title>
<path fill="none" stroke="black" d="M263.629,-569.697C258.282,-561.559 251.796,-551.689 245.889,-542.701"/>
<polygon fill="black" stroke="black" points="248.657,-540.539 240.24,-534.104 242.807,-544.384 248.657,-540.539"/>
</g>
<!-- compileTestJava -->
<g id="node5" class="node"><title>compileTestJava</title>
<polygon fill="lightcyan" stroke="black" points="556,-534 448,-534 448,-498 556,-498 556,-534"/>
<text text-anchor="middle" x="502" y="-512.3" font-family="Times,serif" font-size="14.00">compileTestJava</text>
</g>
<!-- classes&#45;&gt;compileTestJava -->
<g id="edge3" class="edge"><title>classes&#45;&gt;compileTestJava</title>
<path fill="none" stroke="black" d="M292.959,-569.924C296.996,-566.856 301.442,-564.002 306,-562 360.727,-537.956 381.288,-557.57 439,-542 443.722,-540.726 448.571,-539.207 453.382,-537.556"/>
<polygon fill="black" stroke="black" points="454.94,-540.714 463.15,-534.017 452.555,-534.132 454.94,-540.714"/>
</g>
<!-- test -->
<g id="node8" class="node"><title>test</title>
<polygon fill="lightcyan" stroke="black" points="516,-371 462,-371 462,-335 516,-335 516,-371"/>
<text text-anchor="middle" x="489" y="-349.3" font-family="Times,serif" font-size="14.00">test</text>
</g>
<!-- classes&#45;&gt;test -->
<g id="edge5" class="edge"><title>classes&#45;&gt;test</title>
<path fill="none" stroke="black" d="M274.323,-569.914C272.675,-523.907 269.455,-400.001 282,-387 290.74,-377.942 382.585,-381.071 395,-379 414.076,-375.818 434.896,-370.479 452.083,-365.551"/>
<polygon fill="black" stroke="black" points="453.132,-368.891 461.741,-362.716 451.16,-362.174 453.132,-368.891"/>
</g>
<!-- jar&#45;&gt;compileJava -->
<g id="edge21" class="edge"><title>jar&#45;&gt;compileJava</title>
<path fill="none" stroke="red" d="M230.275,-534.106C232.353,-561.986 236.487,-617.453 238.972,-650.788"/>
<polygon fill="red" stroke="red" points="235.482,-651.058 239.716,-660.77 242.463,-650.538 235.482,-651.058"/>
</g>
<!-- uploadArchives -->
<g id="node9" class="node"><title>uploadArchives</title>
<polygon fill="lightcyan" stroke="black" points="383,-371 281,-371 281,-335 383,-335 383,-371"/>
<text text-anchor="middle" x="332" y="-349.3" font-family="Times,serif" font-size="14.00">uploadArchives</text>
</g>
<!-- jar&#45;&gt;uploadArchives -->
<g id="edge8" class="edge"><title>jar&#45;&gt;uploadArchives</title>
<path fill="none" stroke="black" d="M230.423,-497.706C233.438,-471.1 242.627,-419.775 270,-387 273.109,-383.277 276.75,-379.914 280.681,-376.889"/>
<polygon fill="black" stroke="black" points="282.799,-379.681 289.081,-371.149 278.85,-373.901 282.799,-379.681"/>
</g>
<!-- assemble -->
<g id="node10" class="node"><title>assemble</title>
<polygon fill="lightcyan" stroke="black" points="262.25,-371 195.75,-371 195.75,-335 262.25,-335 262.25,-371"/>
<text text-anchor="middle" x="229" y="-349.3" font-family="Times,serif" font-size="14.00">assemble</text>
</g>
<!-- jar&#45;&gt;assemble -->
<g id="edge9" class="edge"><title>jar&#45;&gt;assemble</title>
<path fill="none" stroke="black" d="M229,-497.77C229,-469.929 229,-414.813 229,-381.498"/>
<polygon fill="black" stroke="black" points="232.5,-381.106 229,-371.106 225.5,-381.106 232.5,-381.106"/>
</g>
<!-- testClasses -->
<g id="node7" class="node"><title>testClasses</title>
<polygon fill="lightcyan" stroke="black" points="527,-462 451,-462 451,-426 527,-426 527,-462"/>
<text text-anchor="middle" x="489" y="-440.3" font-family="Times,serif" font-size="14.00">testClasses</text>
</g>
<!-- compileTestJava&#45;&gt;testClasses -->
<g id="edge6" class="edge"><title>compileTestJava&#45;&gt;testClasses</title>
<path fill="none" stroke="black" d="M498.787,-497.697C497.354,-489.983 495.632,-480.712 494.035,-472.112"/>
<polygon fill="black" stroke="black" points="497.444,-471.297 492.177,-462.104 490.561,-472.575 497.444,-471.297"/>
</g>
<!-- processTestResources -->
<g id="node6" class="node"><title>processTestResources</title>
<polygon fill="lightcyan" stroke="black" points="430,-534 294,-534 294,-498 430,-498 430,-534"/>
<text text-anchor="middle" x="362" y="-512.3" font-family="Times,serif" font-size="14.00">processTestResources</text>
</g>
<!-- processTestResources&#45;&gt;testClasses -->
<g id="edge7" class="edge"><title>processTestResources&#45;&gt;testClasses</title>
<path fill="none" stroke="black" d="M393.068,-497.876C409.827,-488.639 430.706,-477.131 448.702,-467.212"/>
<polygon fill="black" stroke="black" points="450.745,-470.082 457.813,-462.19 447.366,-463.952 450.745,-470.082"/>
</g>
<!-- testClasses&#45;&gt;test -->
<g id="edge10" class="edge"><title>testClasses&#45;&gt;test</title>
<path fill="none" stroke="black" d="M489,-425.84C489,-413.281 489,-395.979 489,-381.502"/>
<polygon fill="black" stroke="black" points="492.5,-381.107 489,-371.107 485.5,-381.107 492.5,-381.107"/>
</g>
<!-- check -->
<g id="node11" class="node"><title>check</title>
<polygon fill="cyan" stroke="black" points="398,-227 344,-227 344,-191 398,-191 398,-227"/>
<text text-anchor="middle" x="371" y="-205.3" font-family="Times,serif" font-size="14.00">check</text>
</g>
<!-- test&#45;&gt;check -->
<g id="edge13" class="edge"><title>test&#45;&gt;check</title>
<path fill="none" stroke="black" d="M512.113,-334.803C520.333,-327.284 528.628,-317.725 533,-307 541.724,-285.599 548.058,-272.532 533,-255 494.625,-210.321 455.896,-258.751 402,-235 400.434,-234.31 398.881,-233.52 397.353,-232.655"/>
<polygon fill="black" stroke="black" points="399.227,-229.697 388.963,-227.069 395.347,-235.524 399.227,-229.697"/>
</g>
<!-- findbugsTest -->
<g id="node21" class="node"><title>findbugsTest</title>
<polygon fill="orange" stroke="black" points="520.25,-299 433.75,-299 433.75,-263 520.25,-263 520.25,-299"/>
<text text-anchor="middle" x="477" y="-277.3" font-family="Times,serif" font-size="14.00">findbugsTest</text>
</g>
<!-- test&#45;&gt;findbugsTest -->
<g id="edge30" class="edge"><title>test&#45;&gt;findbugsTest</title>
<path fill="none" stroke="black" d="M486.034,-334.697C484.711,-326.983 483.122,-317.712 481.648,-309.112"/>
<polygon fill="black" stroke="black" points="485.072,-308.369 479.932,-299.104 478.172,-309.552 485.072,-308.369"/>
</g>
<!-- jacocoTestReport -->
<g id="node27" class="node"><title>jacocoTestReport</title>
<polygon fill="orange" stroke="black" points="564,-155 452,-155 452,-119 564,-119 564,-155"/>
<text text-anchor="middle" x="508" y="-133.3" font-family="Times,serif" font-size="14.00">jacocoTestReport</text>
</g>
<!-- test&#45;&gt;jacocoTestReport -->
<g id="edge33" class="edge"><title>test&#45;&gt;jacocoTestReport</title>
<path fill="none" stroke="magenta" d="M516.102,-336.647C526.535,-329.174 537.306,-319.157 543,-307 565.188,-259.628 540.834,-198.268 523.1,-164.032"/>
<polygon fill="magenta" stroke="magenta" points="526.134,-162.283 518.318,-155.129 519.967,-165.595 526.134,-162.283"/>
</g>
<!-- assemble&#45;&gt;check -->
<g id="edge12" class="edge"><title>assemble&#45;&gt;check</title>
<path fill="none" stroke="black" d="M257.41,-334.87C268.077,-327.36 279.631,-317.79 288,-307 303.38,-287.171 294.462,-274.705 310,-255 317.05,-246.06 326.302,-238.023 335.462,-231.299"/>
<polygon fill="black" stroke="black" points="337.576,-234.092 343.783,-225.506 333.576,-228.348 337.576,-234.092"/>
</g>
<!-- release -->
<g id="node13" class="node"><title>release</title>
<polygon fill="cyan" stroke="black" points="118,-299 64,-299 64,-263 118,-263 118,-299"/>
<text text-anchor="middle" x="91" y="-277.3" font-family="Times,serif" font-size="14.00">release</text>
</g>
<!-- assemble&#45;&gt;release -->
<g id="edge22" class="edge"><title>assemble&#45;&gt;release</title>
<path fill="none" stroke="black" d="M195.594,-335.055C174.887,-324.552 148.291,-311.061 127.1,-300.312"/>
<polygon fill="black" stroke="black" points="128.586,-297.141 118.084,-295.738 125.419,-303.384 128.586,-297.141"/>
</g>
<!-- exportX -->
<g id="node15" class="node"><title>exportX</title>
<polygon fill="cyan" stroke="black" points="263.25,-299 166.75,-299 162.75,-295 162.75,-263 259.25,-263 263.25,-267 263.25,-299"/>
<polyline fill="none" stroke="black" points="259.25,-295 162.75,-295 "/>
<polyline fill="none" stroke="black" points="259.25,-295 259.25,-263 "/>
<polyline fill="none" stroke="black" points="259.25,-295 263.25,-299 "/>
<text text-anchor="middle" x="213" y="-277.3" font-family="Times,serif" font-size="14.00">export.&lt;name&gt;</text>
</g>
<!-- assemble&#45;&gt;exportX -->
<g id="edge23" class="edge"><title>assemble&#45;&gt;exportX</title>
<path fill="none" stroke="black" d="M225.045,-334.697C223.282,-326.983 221.163,-317.712 219.197,-309.112"/>
<polygon fill="black" stroke="black" points="222.55,-308.073 216.91,-299.104 215.726,-309.633 222.55,-308.073"/>
</g>
<!-- build -->
<g id="node17" class="node"><title>build</title>
<polygon fill="lightcyan" stroke="black" points="285,-155 231,-155 231,-119 285,-119 285,-155"/>
<text text-anchor="middle" x="258" y="-133.3" font-family="Times,serif" font-size="14.00">build</text>
</g>
<!-- assemble&#45;&gt;build -->
<g id="edge11" class="edge"><title>assemble&#45;&gt;build</title>
<path fill="none" stroke="black" d="M254.152,-334.673C262.764,-327.257 271.386,-317.805 276,-307 286.821,-281.658 281.211,-210.058 276,-183 274.818,-176.86 272.805,-170.493 270.543,-164.548"/>
<polygon fill="black" stroke="black" points="273.67,-162.951 266.606,-155.055 267.205,-165.633 273.67,-162.951"/>
</g>
<!-- findbugsMain -->
<g id="node20" class="node"><title>findbugsMain</title>
<polygon fill="orange" stroke="black" points="415.25,-299 322.75,-299 322.75,-263 415.25,-263 415.25,-299"/>
<text text-anchor="middle" x="369" y="-277.3" font-family="Times,serif" font-size="14.00">findbugsMain</text>
</g>
<!-- assemble&#45;&gt;findbugsMain -->
<g id="edge29" class="edge"><title>assemble&#45;&gt;findbugsMain</title>
<path fill="none" stroke="black" d="M257.476,-334.952C262.282,-332.217 267.252,-329.475 272,-327 287.541,-318.899 304.812,-310.653 320.422,-303.471"/>
<polygon fill="black" stroke="black" points="322.253,-306.483 329.897,-299.148 319.347,-300.115 322.253,-306.483"/>
</g>
<!-- checkNeeded -->
<g id="node12" class="node"><title>checkNeeded</title>
<polygon fill="cyan" stroke="black" points="415.25,-155 326.75,-155 326.75,-119 415.25,-119 415.25,-155"/>
<text text-anchor="middle" x="371" y="-133.3" font-family="Times,serif" font-size="14.00">checkNeeded</text>
</g>
<!-- check&#45;&gt;checkNeeded -->
<g id="edge14" class="edge"><title>check&#45;&gt;checkNeeded</title>
<path fill="none" stroke="black" d="M371,-190.697C371,-182.983 371,-173.712 371,-165.112"/>
<polygon fill="black" stroke="black" points="374.5,-165.104 371,-155.104 367.5,-165.104 374.5,-165.104"/>
</g>
<!-- check&#45;&gt;build -->
<g id="edge16" class="edge"><title>check&#45;&gt;build</title>
<path fill="none" stroke="black" d="M343.934,-191.233C328.949,-181.951 310.132,-170.294 293.929,-160.257"/>
<polygon fill="black" stroke="black" points="295.581,-157.163 285.237,-154.873 291.895,-163.114 295.581,-157.163"/>
</g>
<!-- check&#45;&gt;jacocoTestReport -->
<g id="edge34" class="edge"><title>check&#45;&gt;jacocoTestReport</title>
<path fill="none" stroke="magenta" d="M390.752,-190.746C394.37,-187.975 398.205,-185.275 402,-183 407.341,-179.798 432.588,-169.055 457.101,-158.869"/>
<polygon fill="magenta" stroke="magenta" points="458.518,-162.071 466.417,-155.01 455.839,-155.604 458.518,-162.071"/>
</g>
<!-- checkNeeded&#45;&gt;checkNeeded -->
<g id="edge15" class="edge"><title>checkNeeded&#45;&gt;checkNeeded</title>
<path fill="none" stroke="red" d="M415.306,-150.203C425.507,-149.065 433,-144.664 433,-137 433,-132.09 429.925,-128.52 425.032,-126.288"/>
<polygon fill="red" stroke="red" points="425.862,-122.888 415.306,-123.797 424.125,-129.669 425.862,-122.888"/>
</g>
<!-- releaseNeeded -->
<g id="node14" class="node"><title>releaseNeeded</title>
<polygon fill="cyan" stroke="black" points="119.25,-227 24.75,-227 24.75,-191 119.25,-191 119.25,-227"/>
<text text-anchor="middle" x="72" y="-205.3" font-family="Times,serif" font-size="14.00">releaseNeeded</text>
</g>
<!-- release&#45;&gt;releaseNeeded -->
<g id="edge25" class="edge"><title>release&#45;&gt;releaseNeeded</title>
<path fill="none" stroke="black" d="M86.3034,-262.697C84.1866,-254.898 81.638,-245.509 79.2822,-236.829"/>
<polygon fill="black" stroke="black" points="82.64,-235.838 76.6426,-227.104 75.8844,-237.672 82.64,-235.838"/>
</g>
<!-- releaseNeeded&#45;&gt;releaseNeeded -->
<g id="edge26" class="edge"><title>releaseNeeded&#45;&gt;releaseNeeded</title>
<path fill="none" stroke="red" d="M119.326,-222.101C129.571,-220.82 137,-216.453 137,-209 137,-204.225 133.951,-200.717 129.066,-198.476"/>
<polygon fill="red" stroke="red" points="129.889,-195.073 119.326,-195.899 128.098,-201.84 129.889,-195.073"/>
</g>
<!-- export -->
<g id="node16" class="node"><title>export</title>
<polygon fill="cyan" stroke="black" points="240,-227 186,-227 186,-191 240,-191 240,-227"/>
<text text-anchor="middle" x="213" y="-205.3" font-family="Times,serif" font-size="14.00">export</text>
</g>
<!-- exportX&#45;&gt;export -->
<g id="edge24" class="edge"><title>exportX&#45;&gt;export</title>
<path fill="none" stroke="black" d="M213,-262.697C213,-254.983 213,-245.712 213,-237.112"/>
<polygon fill="black" stroke="black" points="216.5,-237.104 213,-227.104 209.5,-237.104 216.5,-237.104"/>
</g>
<!-- buildDependents -->
<g id="node18" class="node"><title>buildDependents</title>
<polygon fill="lightcyan" stroke="black" points="162,-83 54,-83 54,-47 162,-47 162,-83"/>
<text text-anchor="middle" x="108" y="-61.3" font-family="Times,serif" font-size="14.00">buildDependents</text>
</g>
<!-- build&#45;&gt;buildDependents -->
<g id="edge17" class="edge"><title>build&#45;&gt;buildDependents</title>
<path fill="none" stroke="black" d="M230.836,-123.324C209.426,-113.332 179.089,-99.1748 153.921,-87.4298"/>
<polygon fill="black" stroke="black" points="155.1,-84.1175 144.558,-83.0603 152.139,-90.4608 155.1,-84.1175"/>
</g>
<!-- buildNeeded -->
<g id="node19" class="node"><title>buildNeeded</title>
<polygon fill="lightcyan" stroke="black" points="284,-83 198,-83 198,-47 284,-47 284,-83"/>
<text text-anchor="middle" x="241" y="-61.3" font-family="Times,serif" font-size="14.00">buildNeeded</text>
</g>
<!-- build&#45;&gt;buildNeeded -->
<g id="edge19" class="edge"><title>build&#45;&gt;buildNeeded</title>
<path fill="none" stroke="black" d="M253.798,-118.697C251.904,-110.898 249.623,-101.509 247.516,-92.8292"/>
<polygon fill="black" stroke="black" points="250.915,-91.9959 245.154,-83.1043 244.113,-93.6479 250.915,-91.9959"/>
</g>
<!-- buildDependents&#45;&gt;buildDependents -->
<g id="edge18" class="edge"><title>buildDependents&#45;&gt;buildDependents</title>
<path fill="none" stroke="yellow" d="M162.007,-77.8993C172.529,-76.4013 180,-72.1016 180,-65 180,-60.4506 176.934,-57.051 171.964,-54.8012"/>
<polygon fill="yellow" stroke="yellow" points="172.575,-51.3406 162.007,-52.1007 170.742,-58.0965 172.575,-51.3406"/>
</g>
<!-- buildNeeded&#45;&gt;buildNeeded -->
<g id="edge20" class="edge"><title>buildNeeded&#45;&gt;buildNeeded</title>
<path fill="none" stroke="red" d="M284.036,-78.2619C294.355,-77.2253 302,-72.8047 302,-65 302,-60.0001 298.862,-56.3891 293.894,-54.1668"/>
<polygon fill="red" stroke="red" points="294.583,-50.7319 284.036,-51.7381 292.909,-57.5287 294.583,-50.7319"/>
</g>
<!-- findbugsMain&#45;&gt;check -->
<g id="edge31" class="edge"><title>findbugsMain&#45;&gt;check</title>
<path fill="none" stroke="green" d="M369.494,-262.697C369.715,-254.983 369.98,-245.712 370.225,-237.112"/>
<polygon fill="green" stroke="green" points="373.724,-237.2 370.511,-227.104 366.727,-237 373.724,-237.2"/>
</g>
<!-- findbugsTest&#45;&gt;check -->
<g id="edge32" class="edge"><title>findbugsTest&#45;&gt;check</title>
<path fill="none" stroke="green" d="M446.473,-262.971C432.618,-254.918 416.193,-244.91 402,-235 401.231,-234.463 400.457,-233.913 399.68,-233.353"/>
<polygon fill="green" stroke="green" points="401.461,-230.312 391.371,-227.083 397.245,-235.9 401.461,-230.312"/>
</g>
<!-- javadoc -->
<g id="node22" class="node"><title>javadoc</title>
<polygon fill="orange" stroke="black" points="491.25,-697 432.75,-697 432.75,-661 491.25,-661 491.25,-697"/>
<text text-anchor="middle" x="462" y="-675.3" font-family="Times,serif" font-size="14.00">javadoc</text>
</g>
<!-- clean -->
<g id="node23" class="node"><title>clean</title>
<polygon fill="cyan" stroke="black" points="564,-697 510,-697 510,-661 564,-661 564,-697"/>
<text text-anchor="middle" x="537" y="-675.3" font-family="Times,serif" font-size="14.00">clean</text>
</g>
<!-- cleanNeeded -->
<g id="node24" class="node"><title>cleanNeeded</title>
<polygon fill="cyan" stroke="black" points="546,-606 460,-606 460,-570 546,-570 546,-606"/>
<text text-anchor="middle" x="503" y="-584.3" font-family="Times,serif" font-size="14.00">cleanNeeded</text>
</g>
<!-- clean&#45;&gt;cleanNeeded -->
<g id="edge27" class="edge"><title>clean&#45;&gt;cleanNeeded</title>
<path fill="none" stroke="black" d="M530.444,-660.84C525.553,-648.035 518.777,-630.299 513.182,-615.654"/>
<polygon fill="black" stroke="black" points="516.374,-614.2 509.535,-606.107 509.835,-616.698 516.374,-614.2"/>
</g>
<!-- cleanAll -->
<g id="node29" class="node"><title>cleanAll</title>
<polygon fill="orange" stroke="black" points="666,-606 612,-606 612,-570 666,-570 666,-606"/>
<text text-anchor="middle" x="639" y="-584.3" font-family="Times,serif" font-size="14.00">clean</text>
</g>
<!-- clean&#45;&gt;cleanAll -->
<g id="edge35" class="edge"><title>clean&#45;&gt;cleanAll</title>
<path fill="none" stroke="blue" d="M556.667,-660.84C572.33,-647.173 594.43,-627.889 611.791,-612.741"/>
<polygon fill="blue" stroke="blue" points="614.16,-615.319 619.394,-606.107 609.558,-610.045 614.16,-615.319"/>
</g>
<!-- cleanNeeded&#45;&gt;cleanNeeded -->
<g id="edge28" class="edge"><title>cleanNeeded&#45;&gt;cleanNeeded</title>
<path fill="none" stroke="red" d="M546.036,-601.262C556.355,-600.225 564,-595.805 564,-588 564,-583 560.862,-579.389 555.894,-577.167"/>
<polygon fill="red" stroke="red" points="556.583,-573.732 546.036,-574.738 554.909,-580.529 556.583,-573.732"/>
</g>
<!-- cleanAllNeeded -->
<g id="node30" class="node"><title>cleanAllNeeded</title>
<polygon fill="orange" stroke="black" points="682,-534 596,-534 596,-498 682,-498 682,-534"/>
<text text-anchor="middle" x="639" y="-512.3" font-family="Times,serif" font-size="14.00">cleanNeeded</text>
</g>
<!-- cleanNeeded&#45;&gt;cleanAllNeeded -->
<g id="edge36" class="edge"><title>cleanNeeded&#45;&gt;cleanAllNeeded</title>
<path fill="none" stroke="blue" d="M536.269,-569.876C554.463,-560.512 577.191,-548.814 596.64,-538.803"/>
<polygon fill="blue" stroke="blue" points="598.313,-541.878 605.603,-534.19 595.11,-535.654 598.313,-541.878"/>
</g>
<!-- echo -->
<g id="node25" class="node"><title>echo</title>
<polygon fill="cyan" stroke="black" points="180,-697 126,-697 126,-661 180,-661 180,-697"/>
<text text-anchor="middle" x="153" y="-675.3" font-family="Times,serif" font-size="14.00">echo</text>
</g>
<!-- bndproperties -->
<g id="node26" class="node"><title>bndproperties</title>
<polygon fill="cyan" stroke="black" points="107.25,-697 16.75,-697 16.75,-661 107.25,-661 107.25,-697"/>
<text text-anchor="middle" x="62" y="-675.3" font-family="Times,serif" font-size="14.00">bndproperties</text>
</g>
<!-- index -->
<g id="node28" class="node"><title>index</title>
<polygon fill="orange" stroke="black" points="862,-606 808,-606 808,-570 862,-570 862,-606"/>
<text text-anchor="middle" x="835" y="-584.3" font-family="Times,serif" font-size="14.00">index</text>
</g>
<!-- cleanAll&#45;&gt;cleanAllNeeded -->
<g id="edge37" class="edge"><title>cleanAll&#45;&gt;cleanAllNeeded</title>
<path fill="none" stroke="black" d="M639,-569.697C639,-561.983 639,-552.712 639,-544.112"/>
<polygon fill="black" stroke="black" points="642.5,-544.104 639,-534.104 635.5,-544.104 642.5,-544.104"/>
</g>
<!-- distclean -->
<g id="node31" class="node"><title>distclean</title>
<polygon fill="orange" stroke="black" points="783.25,-534 718.75,-534 718.75,-498 783.25,-498 783.25,-534"/>
<text text-anchor="middle" x="751" y="-512.3" font-family="Times,serif" font-size="14.00">distclean</text>
</g>
<!-- cleanAll&#45;&gt;distclean -->
<g id="edge38" class="edge"><title>cleanAll&#45;&gt;distclean</title>
<path fill="none" stroke="black" d="M666.112,-570.055C680.861,-560.837 699.29,-549.319 715.206,-539.371"/>
<polygon fill="black" stroke="black" points="717.124,-542.3 723.749,-534.032 713.414,-536.364 717.124,-542.3"/>
</g>
<!-- cleanAllNeeded&#45;&gt;cleanAllNeeded -->
<g id="edge39" class="edge"><title>cleanAllNeeded&#45;&gt;cleanAllNeeded</title>
<path fill="none" stroke="red" d="M682.036,-529.262C692.355,-528.225 700,-523.805 700,-516 700,-511 696.862,-507.389 691.894,-505.167"/>
<polygon fill="red" stroke="red" points="692.583,-501.732 682.036,-502.738 690.909,-508.529 692.583,-501.732"/>
</g>
<!-- distcleanNeeded -->
<g id="node32" class="node"><title>distcleanNeeded</title>
<polygon fill="orange" stroke="black" points="734,-462 628,-462 628,-426 734,-426 734,-462"/>
<text text-anchor="middle" x="681" y="-440.3" font-family="Times,serif" font-size="14.00">distcleanNeeded</text>
</g>
<!-- cleanAllNeeded&#45;&gt;distcleanNeeded -->
<g id="edge40" class="edge"><title>cleanAllNeeded&#45;&gt;distcleanNeeded</title>
<path fill="none" stroke="black" d="M649.382,-497.697C654.265,-489.559 660.187,-479.689 665.579,-470.701"/>
<polygon fill="black" stroke="black" points="668.594,-472.48 670.737,-462.104 662.591,-468.879 668.594,-472.48"/>
</g>
<!-- distclean&#45;&gt;distcleanNeeded -->
<g id="edge41" class="edge"><title>distclean&#45;&gt;distcleanNeeded</title>
<path fill="none" stroke="black" d="M733.697,-497.697C725.135,-489.135 714.656,-478.656 705.304,-469.304"/>
<polygon fill="black" stroke="black" points="707.65,-466.701 698.104,-462.104 702.701,-471.65 707.65,-466.701"/>
</g>
<!-- distcleanNeeded&#45;&gt;distcleanNeeded -->
<g id="edge42" class="edge"><title>distcleanNeeded&#45;&gt;distcleanNeeded</title>
<path fill="none" stroke="red" d="M734.257,-456.899C744.632,-455.401 752,-451.102 752,-444 752,-439.451 748.976,-436.051 744.075,-433.801"/>
<polygon fill="red" stroke="red" points="744.827,-430.378 734.257,-431.101 742.971,-437.128 744.827,-430.378"/>
</g>
<!-- init -->
<g id="node33" class="node"><title>init</title>
<polygon fill="lightcyan" stroke="black" points="796,-697 742,-697 742,-661 796,-661 796,-697"/>
<text text-anchor="middle" x="769" y="-675.3" font-family="Times,serif" font-size="14.00">init</text>
</g>
<!-- wrapper -->
<g id="node34" class="node"><title>wrapper</title>
<polygon fill="orange" stroke="black" points="723.25,-697 662.75,-697 662.75,-661 723.25,-661 723.25,-697"/>
<text text-anchor="middle" x="693" y="-675.3" font-family="Times,serif" font-size="14.00">wrapper</text>
</g>
</g>
</svg>
