<?xml version="1.0" encoding="UTF-8" standalone="no"?>
<!DOCTYPE svg PUBLIC "-//W3C//DTD SVG 1.1//EN"
 "http://www.w3.org/Graphics/SVG/1.1/DTD/svg11.dtd">
<!-- Generated by graphviz version 2.34.0 (20140110.0949)
 -->
<!-- Title: GradleSetup Pages: 1 -->
<svg width="999pt" height="752pt"
 viewBox="0.00 0.00 999.00 752.00" xmlns="http://www.w3.org/2000/svg" xmlns:xlink="http://www.w3.org/1999/xlink">
<g id="graph0" class="graph" transform="scale(1 1) rotate(0) translate(4 748)">
<title>GradleSetup</title>
<polygon fill="white" stroke="white" points="-4,4 -4,-748 995,-748 995,4 -4,4"/>
<text text-anchor="middle" x="61" y="-728.8" font-family="Times,serif" font-size="14.00">Gradle Build Setup</text>
<g id="clust1" class="cluster"><title>cluster1</title>
<polygon fill="lightgrey" stroke="black" points="8,-8 8,-713 677,-713 677,-8 8,-8"/>
<text text-anchor="middle" x="92.5" y="-15.8" font-family="Times,serif" font-size="14.00">Java Projects / Bnd Projects</text>
</g>
<g id="clust2" class="cluster"><title>cluster101</title>
</g>
<g id="clust3" class="cluster"><title>cluster102</title>
</g>
<g id="clust4" class="cluster"><title>cluster103</title>
</g>
<g id="clust5" class="cluster"><title>cluster104</title>
</g>
<g id="clust6" class="cluster"><title>cluster105</title>
</g>
<g id="clust7" class="cluster"><title>cluster106</title>
</g>
<g id="clust8" class="cluster"><title>cluster107</title>
</g>
<g id="clust9" class="cluster"><title>cluster108</title>
</g>
<g id="clust10" class="cluster"><title>cluster109</title>
</g>
<g id="clust11" class="cluster"><title>cluster110</title>
</g>
<g id="clust12" class="cluster"><title>cluster2</title>
<polygon fill="lightgrey" stroke="black" points="759,-630 759,-705 909,-705 909,-630 759,-630"/>
<text text-anchor="middle" x="801.5" y="-637.8" font-family="Times,serif" font-size="14.00">Root Project</text>
</g>
<g id="clust13" class="cluster"><title>cluster3</title>
<polygon fill="lightgrey" stroke="black" points="685,-387 685,-622 983,-622 983,-387 685,-387"/>
<text text-anchor="middle" x="725.5" y="-394.8" font-family="Times,serif" font-size="14.00">All Projects</text>
</g>
<g id="clust14" class="cluster"><title>cluster301</title>
</g>
<g id="clust15" class="cluster"><title>cluster302</title>
</g>
<!-- compileJava -->
<g id="node1" class="node"><title>compileJava</title>
<polygon fill="lightcyan" stroke="black" points="414.25,-697 329.75,-697 329.75,-661 414.25,-661 414.25,-697"/>
<text text-anchor="middle" x="372" y="-675.3" font-family="Times,serif" font-size="14.00">compileJava</text>
</g>
<!-- classes -->
<g id="node3" class="node"><title>classes</title>
<polygon fill="lightcyan" stroke="black" points="338,-606 284,-606 284,-570 338,-570 338,-606"/>
<text text-anchor="middle" x="311" y="-584.3" font-family="Times,serif" font-size="14.00">classes</text>
</g>
<!-- compileJava&#45;&gt;classes -->
<g id="edge1" class="edge"><title>compileJava&#45;&gt;classes</title>
<path fill="none" stroke="black" d="M360.239,-660.84C351.209,-647.666 338.602,-629.272 328.405,-614.394"/>
<polygon fill="black" stroke="black" points="331.266,-612.377 322.725,-606.107 325.492,-616.335 331.266,-612.377"/>
</g>
<!-- processResources -->
<g id="node2" class="node"><title>processResources</title>
<polygon fill="lightcyan" stroke="black" points="311.25,-697 198.75,-697 198.75,-661 311.25,-661 311.25,-697"/>
<text text-anchor="middle" x="255" y="-675.3" font-family="Times,serif" font-size="14.00">processResources</text>
</g>
<!-- processResources&#45;&gt;classes -->
<g id="edge2" class="edge"><title>processResources&#45;&gt;classes</title>
<path fill="none" stroke="black" d="M265.797,-660.84C274.009,-647.789 285.444,-629.615 294.758,-614.813"/>
<polygon fill="black" stroke="black" points="297.873,-616.435 300.236,-606.107 291.948,-612.707 297.873,-616.435"/>
</g>
<!-- jar -->
<g id="node4" class="node"><title>jar</title>
<polygon fill="cyan" stroke="black" points="389,-534 335,-534 335,-498 389,-498 389,-534"/>
<text text-anchor="middle" x="362" y="-512.3" font-family="Times,serif" font-size="14.00">jar</text>
</g>
<!-- classes&#45;&gt;jar -->
<g id="edge4" class="edge"><title>classes&#45;&gt;jar</title>
<path fill="none" stroke="black" d="M323.607,-569.697C329.597,-561.474 336.876,-551.483 343.479,-542.421"/>
<polygon fill="black" stroke="black" points="346.478,-544.248 349.538,-534.104 340.821,-540.126 346.478,-544.248"/>
</g>
<!-- compileTestJava -->
<g id="node5" class="node"><title>compileTestJava</title>
<polygon fill="lightcyan" stroke="black" points="292,-534 184,-534 184,-498 292,-498 292,-534"/>
<text text-anchor="middle" x="238" y="-512.3" font-family="Times,serif" font-size="14.00">compileTestJava</text>
</g>
<!-- classes&#45;&gt;compileTestJava -->
<g id="edge3" class="edge"><title>classes&#45;&gt;compileTestJava</title>
<path fill="none" stroke="black" d="M292.955,-569.697C283.938,-561.05 272.882,-550.449 263.057,-541.027"/>
<polygon fill="black" stroke="black" points="265.478,-538.499 255.837,-534.104 260.633,-543.552 265.478,-538.499"/>
</g>
<!-- test -->
<g id="node8" class="node"><title>test</title>
<polygon fill="lightcyan" stroke="black" points="200,-371 146,-371 146,-335 200,-335 200,-371"/>
<text text-anchor="middle" x="173" y="-349.3" font-family="Times,serif" font-size="14.00">test</text>
</g>
<!-- classes&#45;&gt;test -->
<g id="edge5" class="edge"><title>classes&#45;&gt;test</title>
<path fill="none" stroke="black" d="M311.642,-569.947C313.202,-524.023 316.216,-400.31 304,-387 294.01,-376.116 252.337,-382.568 238,-379 228.608,-376.663 218.735,-373.343 209.599,-369.884"/>
<polygon fill="black" stroke="black" points="210.62,-366.524 200.033,-366.115 208.054,-373.037 210.62,-366.524"/>
</g>
<!-- jar&#45;&gt;compileJava -->
<g id="edge21" class="edge"><title>jar&#45;&gt;compileJava</title>
<path fill="none" stroke="red" d="M363.062,-534.106C364.794,-561.986 368.239,-617.453 370.31,-650.788"/>
<polygon fill="red" stroke="red" points="366.817,-651.006 370.93,-660.77 373.803,-650.572 366.817,-651.006"/>
</g>
<!-- uploadArchives -->
<g id="node9" class="node"><title>uploadArchives</title>
<polygon fill="lightcyan" stroke="black" points="352,-371 250,-371 250,-335 352,-335 352,-371"/>
<text text-anchor="middle" x="301" y="-349.3" font-family="Times,serif" font-size="14.00">uploadArchives</text>
</g>
<!-- jar&#45;&gt;uploadArchives -->
<g id="edge8" class="edge"><title>jar&#45;&gt;uploadArchives</title>
<path fill="none" stroke="black" d="M356.336,-497.855C348.058,-473.138 331.906,-426.161 316,-387 315.101,-384.786 314.138,-382.503 313.151,-380.22"/>
<polygon fill="black" stroke="black" points="316.317,-378.725 309.053,-371.012 309.922,-381.572 316.317,-378.725"/>
</g>
<!-- assemble -->
<g id="node10" class="node"><title>assemble</title>
<polygon fill="lightcyan" stroke="black" points="437.25,-371 370.75,-371 370.75,-335 437.25,-335 437.25,-371"/>
<text text-anchor="middle" x="404" y="-349.3" font-family="Times,serif" font-size="14.00">assemble</text>
</g>
<!-- jar&#45;&gt;assemble -->
<g id="edge9" class="edge"><title>jar&#45;&gt;assemble</title>
<path fill="none" stroke="black" d="M366.495,-497.77C373.789,-469.808 388.261,-414.333 396.94,-381.064"/>
<polygon fill="black" stroke="black" points="400.4,-381.666 399.538,-371.106 393.627,-379.899 400.4,-381.666"/>
</g>
<!-- testClasses -->
<g id="node7" class="node"><title>testClasses</title>
<polygon fill="lightcyan" stroke="black" points="211,-462 135,-462 135,-426 211,-426 211,-462"/>
<text text-anchor="middle" x="173" y="-440.3" font-family="Times,serif" font-size="14.00">testClasses</text>
</g>
<!-- compileTestJava&#45;&gt;testClasses -->
<g id="edge6" class="edge"><title>compileTestJava&#45;&gt;testClasses</title>
<path fill="none" stroke="black" d="M221.933,-497.697C214.061,-489.22 204.445,-478.864 195.827,-469.583"/>
<polygon fill="black" stroke="black" points="198.252,-467.051 188.883,-462.104 193.122,-471.814 198.252,-467.051"/>
</g>
<!-- processTestResources -->
<g id="node6" class="node"><title>processTestResources</title>
<polygon fill="lightcyan" stroke="black" points="166,-534 30,-534 30,-498 166,-498 166,-534"/>
<text text-anchor="middle" x="98" y="-512.3" font-family="Times,serif" font-size="14.00">processTestResources</text>
</g>
<!-- processTestResources&#45;&gt;testClasses -->
<g id="edge7" class="edge"><title>processTestResources&#45;&gt;testClasses</title>
<path fill="none" stroke="black" d="M116.539,-497.697C125.803,-489.05 137.162,-478.449 147.257,-469.027"/>
<polygon fill="black" stroke="black" points="149.751,-471.486 154.674,-462.104 144.975,-466.369 149.751,-471.486"/>
</g>
<!-- testClasses&#45;&gt;test -->
<g id="edge10" class="edge"><title>testClasses&#45;&gt;test</title>
<path fill="none" stroke="black" d="M173,-425.84C173,-413.281 173,-395.979 173,-381.502"/>
<polygon fill="black" stroke="black" points="176.5,-381.107 173,-371.107 169.5,-381.107 176.5,-381.107"/>
</g>
<!-- check -->
<g id="node11" class="node"><title>check</title>
<polygon fill="cyan" stroke="black" points="306,-227 252,-227 252,-191 306,-191 306,-227"/>
<text text-anchor="middle" x="279" y="-205.3" font-family="Times,serif" font-size="14.00">check</text>
</g>
<!-- test&#45;&gt;check -->
<g id="edge13" class="edge"><title>test&#45;&gt;check</title>
<path fill="none" stroke="black" d="M162.526,-334.96C151.273,-314.222 137.127,-279.008 154,-255 173.667,-227.017 212.491,-216.354 241.68,-212.334"/>
<polygon fill="black" stroke="black" points="242.419,-215.772 251.945,-211.134 241.606,-208.819 242.419,-215.772"/>
</g>
<!-- findbugsTest -->
<g id="node21" class="node"><title>findbugsTest</title>
<polygon fill="orange" stroke="black" points="253.25,-299 166.75,-299 166.75,-263 253.25,-263 253.25,-299"/>
<text text-anchor="middle" x="210" y="-277.3" font-family="Times,serif" font-size="14.00">findbugsTest</text>
</g>
<!-- test&#45;&gt;findbugsTest -->
<g id="edge28" class="edge"><title>test&#45;&gt;findbugsTest</title>
<path fill="none" stroke="black" d="M182.146,-334.697C186.403,-326.644 191.556,-316.894 196.266,-307.982"/>
<polygon fill="black" stroke="black" points="199.38,-309.581 200.959,-299.104 193.192,-306.31 199.38,-309.581"/>
</g>
<!-- jacocoTestReport -->
<g id="node26" class="node"><title>jacocoTestReport</title>
<polygon fill="orange" stroke="black" points="128,-299 16,-299 16,-263 128,-263 128,-299"/>
<text text-anchor="middle" x="72" y="-277.3" font-family="Times,serif" font-size="14.00">jacocoTestReport</text>
</g>
<!-- test&#45;&gt;jacocoTestReport -->
<g id="edge31" class="edge"><title>test&#45;&gt;jacocoTestReport</title>
<path fill="none" stroke="black" d="M148.293,-334.876C135.331,-325.893 119.272,-314.763 105.235,-305.034"/>
<polygon fill="black" stroke="black" points="107.015,-302.009 96.8024,-299.19 103.028,-307.763 107.015,-302.009"/>
</g>
<!-- assemble&#45;&gt;check -->
<g id="edge12" class="edge"><title>assemble&#45;&gt;check</title>
<path fill="none" stroke="black" d="M400.973,-334.594C396.408,-310.064 387.206,-266.973 377,-255 361.344,-236.634 336.607,-225.354 315.903,-218.681"/>
<polygon fill="black" stroke="black" points="316.705,-215.267 306.121,-215.764 314.704,-221.976 316.705,-215.267"/>
</g>
<!-- release -->
<g id="node13" class="node"><title>release</title>
<polygon fill="cyan" stroke="black" points="486,-299 432,-299 432,-263 486,-263 486,-299"/>
<text text-anchor="middle" x="459" y="-277.3" font-family="Times,serif" font-size="14.00">release</text>
</g>
<!-- assemble&#45;&gt;release -->
<g id="edge22" class="edge"><title>assemble&#45;&gt;release</title>
<path fill="none" stroke="black" d="M417.596,-334.697C424.123,-326.389 432.068,-316.277 439.247,-307.141"/>
<polygon fill="black" stroke="black" points="442.135,-309.13 445.561,-299.104 436.631,-304.805 442.135,-309.13"/>
</g>
<!-- exportX -->
<g id="node15" class="node"><title>exportX</title>
<polygon fill="cyan" stroke="black" points="660.25,-299 563.75,-299 559.75,-295 559.75,-263 656.25,-263 660.25,-267 660.25,-299"/>
<polyline fill="none" stroke="black" points="656.25,-295 559.75,-295 "/>
<polyline fill="none" stroke="black" points="656.25,-295 656.25,-263 "/>
<polyline fill="none" stroke="black" points="656.25,-295 660.25,-299 "/>
<text text-anchor="middle" x="610" y="-277.3" font-family="Times,serif" font-size="14.00">export.&lt;name&gt;</text>
</g>
<!-- assemble&#45;&gt;exportX -->
<g id="edge23" class="edge"><title>assemble&#45;&gt;exportX</title>
<path fill="none" stroke="black" d="M437.457,-342.225C466.584,-333.535 509.844,-320.199 547,-307 550.76,-305.664 554.629,-304.244 558.512,-302.785"/>
<polygon fill="black" stroke="black" points="560.049,-305.944 568.14,-299.104 557.55,-299.406 560.049,-305.944"/>
</g>
<!-- build -->
<g id="node17" class="node"><title>build</title>
<polygon fill="lightcyan" stroke="black" points="429,-155 375,-155 375,-119 429,-119 429,-155"/>
<text text-anchor="middle" x="402" y="-133.3" font-family="Times,serif" font-size="14.00">build</text>
</g>
<!-- assemble&#45;&gt;build -->
<g id="edge11" class="edge"><title>assemble&#45;&gt;build</title>
<path fill="none" stroke="black" d="M403.84,-334.849C403.494,-297.832 402.675,-210.181 402.256,-165.386"/>
<polygon fill="black" stroke="black" points="405.754,-165.199 402.161,-155.232 398.755,-165.265 405.754,-165.199"/>
</g>
<!-- findbugsMain -->
<g id="node20" class="node"><title>findbugsMain</title>
<polygon fill="orange" stroke="black" points="364.25,-299 271.75,-299 271.75,-263 364.25,-263 364.25,-299"/>
<text text-anchor="middle" x="318" y="-277.3" font-family="Times,serif" font-size="14.00">findbugsMain</text>
</g>
<!-- assemble&#45;&gt;findbugsMain -->
<g id="edge27" class="edge"><title>assemble&#45;&gt;findbugsMain</title>
<path fill="none" stroke="black" d="M382.742,-334.697C371.911,-325.881 358.582,-315.032 346.84,-305.474"/>
<polygon fill="black" stroke="black" points="348.979,-302.703 339.014,-299.104 344.56,-308.132 348.979,-302.703"/>
</g>
<!-- checkNeeded -->
<g id="node12" class="node"><title>checkNeeded</title>
<polygon fill="cyan" stroke="black" points="305.25,-155 216.75,-155 216.75,-119 305.25,-119 305.25,-155"/>
<text text-anchor="middle" x="261" y="-133.3" font-family="Times,serif" font-size="14.00">checkNeeded</text>
</g>
<!-- check&#45;&gt;checkNeeded -->
<g id="edge14" class="edge"><title>check&#45;&gt;checkNeeded</title>
<path fill="none" stroke="black" d="M274.551,-190.697C272.545,-182.898 270.131,-173.509 267.899,-164.829"/>
<polygon fill="black" stroke="black" points="271.278,-163.918 265.398,-155.104 264.499,-165.661 271.278,-163.918"/>
</g>
<!-- check&#45;&gt;build -->
<g id="edge16" class="edge"><title>check&#45;&gt;build</title>
<path fill="none" stroke="black" d="M306.298,-192.465C323.894,-182.451 346.968,-169.319 366.05,-158.459"/>
<polygon fill="black" stroke="black" points="367.819,-161.48 374.779,-153.492 364.356,-155.396 367.819,-161.48"/>
</g>
<!-- checkNeeded&#45;&gt;checkNeeded -->
<g id="edge15" class="edge"><title>checkNeeded&#45;&gt;checkNeeded</title>
<path fill="none" stroke="red" d="M305.306,-150.203C315.507,-149.065 323,-144.664 323,-137 323,-132.09 319.925,-128.52 315.032,-126.288"/>
<polygon fill="red" stroke="red" points="315.862,-122.888 305.306,-123.797 314.125,-129.669 315.862,-122.888"/>
</g>
<!-- releaseNeeded -->
<g id="node14" class="node"><title>releaseNeeded</title>
<polygon fill="cyan" stroke="black" points="516.25,-227 421.75,-227 421.75,-191 516.25,-191 516.25,-227"/>
<text text-anchor="middle" x="469" y="-205.3" font-family="Times,serif" font-size="14.00">releaseNeeded</text>
</g>
<!-- release&#45;&gt;releaseNeeded -->
<g id="edge25" class="edge"><title>release&#45;&gt;releaseNeeded</title>
<path fill="none" stroke="black" d="M461.472,-262.697C462.574,-254.983 463.898,-245.712 465.127,-237.112"/>
<polygon fill="black" stroke="black" points="468.607,-237.499 466.557,-227.104 461.677,-236.509 468.607,-237.499"/>
</g>
<!-- releaseNeeded&#45;&gt;releaseNeeded -->
<g id="edge26" class="edge"><title>releaseNeeded&#45;&gt;releaseNeeded</title>
<path fill="none" stroke="red" d="M516.326,-222.101C526.571,-220.82 534,-216.453 534,-209 534,-204.225 530.951,-200.717 526.066,-198.476"/>
<polygon fill="red" stroke="red" points="526.889,-195.073 516.326,-195.899 525.098,-201.84 526.889,-195.073"/>
</g>
<!-- export -->
<g id="node16" class="node"><title>export</title>
<polygon fill="cyan" stroke="black" points="637,-227 583,-227 583,-191 637,-191 637,-227"/>
<text text-anchor="middle" x="610" y="-205.3" font-family="Times,serif" font-size="14.00">export</text>
</g>
<!-- exportX&#45;&gt;export -->
<g id="edge24" class="edge"><title>exportX&#45;&gt;export</title>
<path fill="none" stroke="black" d="M610,-262.697C610,-254.983 610,-245.712 610,-237.112"/>
<polygon fill="black" stroke="black" points="613.5,-237.104 610,-227.104 606.5,-237.104 613.5,-237.104"/>
</g>
<!-- buildDependents -->
<g id="node18" class="node"><title>buildDependents</title>
<polygon fill="lightcyan" stroke="black" points="456,-83 348,-83 348,-47 456,-47 456,-83"/>
<text text-anchor="middle" x="402" y="-61.3" font-family="Times,serif" font-size="14.00">buildDependents</text>
</g>
<!-- build&#45;&gt;buildDependents -->
<g id="edge17" class="edge"><title>build&#45;&gt;buildDependents</title>
<path fill="none" stroke="black" d="M402,-118.697C402,-110.983 402,-101.712 402,-93.1124"/>
<polygon fill="black" stroke="black" points="405.5,-93.1043 402,-83.1043 398.5,-93.1044 405.5,-93.1043"/>
</g>
<!-- buildNeeded -->
<g id="node19" class="node"><title>buildNeeded</title>
<polygon fill="lightcyan" stroke="black" points="578,-83 492,-83 492,-47 578,-47 578,-83"/>
<text text-anchor="middle" x="535" y="-61.3" font-family="Times,serif" font-size="14.00">buildNeeded</text>
</g>
<!-- build&#45;&gt;buildNeeded -->
<g id="edge19" class="edge"><title>build&#45;&gt;buildNeeded</title>
<path fill="none" stroke="black" d="M429.235,-121.666C447.772,-111.91 472.649,-98.8161 493.62,-87.7789"/>
<polygon fill="black" stroke="black" points="495.421,-90.7864 502.64,-83.0316 492.161,-84.5919 495.421,-90.7864"/>
</g>
<!-- buildDependents&#45;&gt;buildDependents -->
<g id="edge18" class="edge"><title>buildDependents&#45;&gt;buildDependents</title>
<path fill="none" stroke="yellow" d="M456.007,-77.8993C466.529,-76.4013 474,-72.1016 474,-65 474,-60.4506 470.934,-57.051 465.964,-54.8012"/>
<polygon fill="yellow" stroke="yellow" points="466.575,-51.3406 456.007,-52.1007 464.742,-58.0965 466.575,-51.3406"/>
</g>
<!-- buildNeeded&#45;&gt;buildNeeded -->
<g id="edge20" class="edge"><title>buildNeeded&#45;&gt;buildNeeded</title>
<path fill="none" stroke="red" d="M578.036,-78.2619C588.355,-77.2253 596,-72.8047 596,-65 596,-60.0001 592.862,-56.3891 587.894,-54.1668"/>
<polygon fill="red" stroke="red" points="588.583,-50.7319 578.036,-51.7381 586.909,-57.5287 588.583,-50.7319"/>
</g>
<!-- findbugsMain&#45;&gt;check -->
<g id="edge29" class="edge"><title>findbugsMain&#45;&gt;check</title>
<path fill="none" stroke="green" d="M308.36,-262.697C303.873,-254.644 298.441,-244.894 293.476,-235.982"/>
<polygon fill="green" stroke="green" points="296.454,-234.137 288.53,-227.104 290.339,-237.544 296.454,-234.137"/>
</g>
<!-- findbugsTest&#45;&gt;check -->
<g id="edge30" class="edge"><title>findbugsTest&#45;&gt;check</title>
<path fill="none" stroke="green" d="M227.056,-262.697C235.495,-254.135 245.825,-243.656 255.043,-234.304"/>
<polygon fill="green" stroke="green" points="257.613,-236.683 262.14,-227.104 252.627,-231.769 257.613,-236.683"/>
</g>
<!-- javadoc -->
<g id="node22" class="node"><title>javadoc</title>
<polygon fill="lightcyan" stroke="black" points="544.25,-697 485.75,-697 485.75,-661 544.25,-661 544.25,-697"/>
<text text-anchor="middle" x="515" y="-675.3" font-family="Times,serif" font-size="14.00">javadoc</text>
</g>
<!-- clean -->
<g id="node23" class="node"><title>clean</title>
<polygon fill="cyan" stroke="black" points="669,-697 615,-697 615,-661 669,-661 669,-697"/>
<text text-anchor="middle" x="642" y="-675.3" font-family="Times,serif" font-size="14.00">clean</text>
</g>
<!-- cleanAll -->
<g id="node30" class="node"><title>cleanAll</title>
<polygon fill="orange" stroke="black" points="771,-606 717,-606 717,-570 771,-570 771,-606"/>
<text text-anchor="middle" x="744" y="-584.3" font-family="Times,serif" font-size="14.00">clean</text>
</g>
<!-- clean&#45;&gt;cleanAll -->
<g id="edge32" class="edge"><title>clean&#45;&gt;cleanAll</title>
<path fill="none" stroke="blue" d="M661.667,-660.84C677.33,-647.173 699.43,-627.889 716.791,-612.741"/>
<polygon fill="blue" stroke="blue" points="719.16,-615.319 724.394,-606.107 714.558,-610.045 719.16,-615.319"/>
</g>
<!-- echo -->
<g id="node24" class="node"><title>echo</title>
<polygon fill="cyan" stroke="black" points="180,-697 126,-697 126,-661 180,-661 180,-697"/>
<text text-anchor="middle" x="153" y="-675.3" font-family="Times,serif" font-size="14.00">echo</text>
</g>
<!-- bndproperties -->
<g id="node25" class="node"><title>bndproperties</title>
<polygon fill="cyan" stroke="black" points="107.25,-697 16.75,-697 16.75,-661 107.25,-661 107.25,-697"/>
<text text-anchor="middle" x="62" y="-675.3" font-family="Times,serif" font-size="14.00">bndproperties</text>
</g>
<!-- init -->
<g id="node27" class="node"><title>init</title>
<polygon fill="lightcyan" stroke="black" points="901,-697 847,-697 847,-661 901,-661 901,-697"/>
<text text-anchor="middle" x="874" y="-675.3" font-family="Times,serif" font-size="14.00">init</text>
</g>
<!-- wrapper -->
<g id="node28" class="node"><title>wrapper</title>
<polygon fill="orange" stroke="black" points="828.25,-697 767.75,-697 767.75,-661 828.25,-661 828.25,-697"/>
<text text-anchor="middle" x="798" y="-675.3" font-family="Times,serif" font-size="14.00">wrapper</text>
</g>
<!-- index -->
<g id="node29" class="node"><title>index</title>
<polygon fill="orange" stroke="black" points="967,-606 913,-606 913,-570 967,-570 967,-606"/>
<text text-anchor="middle" x="940" y="-584.3" font-family="Times,serif" font-size="14.00">index</text>
</g>
<!-- cleanAllNeeded -->
<g id="node31" class="node"><title>cleanAllNeeded</title>
<polygon fill="orange" stroke="black" points="787,-534 701,-534 701,-498 787,-498 787,-534"/>
<text text-anchor="middle" x="744" y="-512.3" font-family="Times,serif" font-size="14.00">cleanNeeded</text>
</g>
<!-- cleanAll&#45;&gt;cleanAllNeeded -->
<g id="edge33" class="edge"><title>cleanAll&#45;&gt;cleanAllNeeded</title>
<path fill="none" stroke="blue" d="M744,-569.697C744,-561.983 744,-552.712 744,-544.112"/>
<polygon fill="blue" stroke="blue" points="747.5,-544.104 744,-534.104 740.5,-544.104 747.5,-544.104"/>
</g>
<!-- distclean -->
<g id="node32" class="node"><title>distclean</title>
<polygon fill="orange" stroke="black" points="888.25,-534 823.75,-534 823.75,-498 888.25,-498 888.25,-534"/>
<text text-anchor="middle" x="856" y="-512.3" font-family="Times,serif" font-size="14.00">distclean</text>
</g>
<!-- cleanAll&#45;&gt;distclean -->
<g id="edge35" class="edge"><title>cleanAll&#45;&gt;distclean</title>
<path fill="none" stroke="blue" d="M771.112,-570.055C785.861,-560.837 804.29,-549.319 820.206,-539.371"/>
<polygon fill="blue" stroke="blue" points="822.124,-542.3 828.749,-534.032 818.414,-536.364 822.124,-542.3"/>
</g>
<!-- cleanAllNeeded&#45;&gt;cleanAllNeeded -->
<g id="edge34" class="edge"><title>cleanAllNeeded&#45;&gt;cleanAllNeeded</title>
<path fill="none" stroke="red" d="M787.036,-529.262C797.355,-528.225 805,-523.805 805,-516 805,-511 801.862,-507.389 796.894,-505.167"/>
<polygon fill="red" stroke="red" points="797.583,-501.732 787.036,-502.738 795.909,-508.529 797.583,-501.732"/>
</g>
<!-- distcleanNeeded -->
<g id="node33" class="node"><title>distcleanNeeded</title>
<polygon fill="orange" stroke="black" points="871,-462 765,-462 765,-426 871,-426 871,-462"/>
<text text-anchor="middle" x="818" y="-440.3" font-family="Times,serif" font-size="14.00">distcleanNeeded</text>
</g>
<!-- distclean&#45;&gt;distcleanNeeded -->
<g id="edge36" class="edge"><title>distclean&#45;&gt;distcleanNeeded</title>
<path fill="none" stroke="black" d="M846.607,-497.697C842.235,-489.644 836.943,-479.894 832.105,-470.982"/>
<polygon fill="black" stroke="black" points="835.132,-469.223 827.285,-462.104 828.98,-472.563 835.132,-469.223"/>
</g>
<!-- distcleanNeeded&#45;&gt;distcleanNeeded -->
<g id="edge37" class="edge"><title>distcleanNeeded&#45;&gt;distcleanNeeded</title>
<path fill="none" stroke="red" d="M871.257,-456.899C881.632,-455.401 889,-451.102 889,-444 889,-439.451 885.976,-436.051 881.075,-433.801"/>
<polygon fill="red" stroke="red" points="881.827,-430.378 871.257,-431.101 879.971,-437.128 881.827,-430.378"/>
</g>
</g>
</svg>
