<?xml version="1.0" encoding="UTF-8" standalone="no"?>
<!DOCTYPE svg PUBLIC "-//W3C//DTD SVG 1.1//EN"
 "http://www.w3.org/Graphics/SVG/1.1/DTD/svg11.dtd">
<!-- Generated by graphviz version 2.34.0 (20140110.0949)
 -->
<!-- Title: GradleSetup Pages: 1 -->
<svg width="1831pt" height="630pt"
 viewBox="0.00 0.00 1831.00 630.00" xmlns="http://www.w3.org/2000/svg" xmlns:xlink="http://www.w3.org/1999/xlink">
<g id="graph0" class="graph" transform="scale(1 1) rotate(0) translate(4 626)">
<title>GradleSetup</title>
<polygon fill="white" stroke="white" points="-4,4 -4,-626 1827,-626 1827,4 -4,4"/>
<text text-anchor="middle" x="61" y="-606.8" font-family="Times,serif" font-size="14.00">Gradle Build Setup</text>
<g id="clust1" class="cluster"><title>cluster1</title>
<polygon fill="lightgrey" stroke="black" points="376,-8 376,-591 981,-591 981,-8 376,-8"/>
<text text-anchor="middle" x="416" y="-15.8" font-family="Times,serif" font-size="14.00">Java Plugin</text>
</g>
<g id="clust2" class="cluster"><title>cluster11</title>
</g>
<g id="clust3" class="cluster"><title>cluster12</title>
</g>
<g id="clust4" class="cluster"><title>cluster13</title>
</g>
<g id="clust5" class="cluster"><title>cluster2</title>
<polygon fill="lightgrey" stroke="black" points="1001,-238 1001,-500 1509,-500 1509,-238 1001,-238"/>
<text text-anchor="middle" x="1044" y="-245.8" font-family="Times,serif" font-size="14.00">Bnd Projects</text>
</g>
<g id="clust6" class="cluster"><title>cluster21</title>
</g>
<g id="clust7" class="cluster"><title>cluster22</title>
</g>
<g id="clust8" class="cluster"><title>cluster23</title>
</g>
<g id="clust9" class="cluster"><title>cluster3</title>
<polygon fill="lightgrey" stroke="black" points="1206,-508 1206,-583 1291,-583 1291,-508 1206,-508"/>
<text text-anchor="middle" x="1248.5" y="-515.8" font-family="Times,serif" font-size="14.00">Root Project</text>
</g>
<g id="clust10" class="cluster"><title>cluster4</title>
<polygon fill="lightgrey" stroke="black" points="8,-155 8,-329 368,-329 368,-155 8,-155"/>
<text text-anchor="middle" x="52" y="-162.8" font-family="Times,serif" font-size="14.00">Java Projects</text>
</g>
<g id="clust11" class="cluster"><title>cluster41</title>
</g>
<g id="clust12" class="cluster"><title>cluster42</title>
</g>
<g id="clust13" class="cluster"><title>cluster5</title>
<polygon fill="lightgrey" stroke="black" points="1517,-337 1517,-591 1815,-591 1815,-337 1517,-337"/>
<text text-anchor="middle" x="1557.5" y="-344.8" font-family="Times,serif" font-size="14.00">All Projects</text>
</g>
<g id="clust14" class="cluster"><title>cluster21</title>
</g>
<g id="clust15" class="cluster"><title>cluster22</title>
</g>
<!-- compileJava -->
<g id="node1" class="node"><title>compileJava</title>
<polygon fill="lightcyan" stroke="black" points="964.25,-575 879.75,-575 879.75,-539 964.25,-539 964.25,-575"/>
<text text-anchor="middle" x="922" y="-553.3" font-family="Times,serif" font-size="14.00">compileJava</text>
</g>
<!-- classes -->
<g id="node3" class="node"><title>classes</title>
<polygon fill="lightcyan" stroke="black" points="802,-484 748,-484 748,-448 802,-448 802,-484"/>
<text text-anchor="middle" x="775" y="-462.3" font-family="Times,serif" font-size="14.00">classes</text>
</g>
<!-- compileJava&#45;&gt;classes -->
<g id="edge1" class="edge"><title>compileJava&#45;&gt;classes</title>
<path fill="none" stroke="black" d="M906.341,-538.889C896.591,-528.947 883.391,-516.705 870,-508 851.872,-496.215 829.789,-486.449 811.478,-479.407"/>
<polygon fill="black" stroke="black" points="812.608,-476.093 802.015,-475.879 810.162,-482.652 812.608,-476.093"/>
</g>
<!-- processResources -->
<g id="node2" class="node"><title>processResources</title>
<polygon fill="lightcyan" stroke="black" points="861.25,-575 748.75,-575 748.75,-539 861.25,-539 861.25,-575"/>
<text text-anchor="middle" x="805" y="-553.3" font-family="Times,serif" font-size="14.00">processResources</text>
</g>
<!-- processResources&#45;&gt;classes -->
<g id="edge2" class="edge"><title>processResources&#45;&gt;classes</title>
<path fill="none" stroke="black" d="M799.216,-538.84C794.899,-526.035 788.921,-508.299 783.984,-493.654"/>
<polygon fill="black" stroke="black" points="787.277,-492.466 780.767,-484.107 780.644,-494.702 787.277,-492.466"/>
</g>
<!-- jar -->
<g id="node4" class="node"><title>jar</title>
<polygon fill="lightcyan" stroke="black" points="874,-412 820,-412 820,-376 874,-376 874,-412"/>
<text text-anchor="middle" x="847" y="-390.3" font-family="Times,serif" font-size="14.00">jar</text>
</g>
<!-- classes&#45;&gt;jar -->
<g id="edge6" class="edge"><title>classes&#45;&gt;jar</title>
<path fill="none" stroke="black" d="M792.798,-447.697C801.604,-439.135 812.382,-428.656 822.001,-419.304"/>
<polygon fill="black" stroke="black" points="824.677,-421.585 829.407,-412.104 819.797,-416.566 824.677,-421.585"/>
</g>
<!-- compileTestJava -->
<g id="node5" class="node"><title>compileTestJava</title>
<polygon fill="lightcyan" stroke="black" points="724,-412 616,-412 616,-376 724,-376 724,-412"/>
<text text-anchor="middle" x="670" y="-390.3" font-family="Times,serif" font-size="14.00">compileTestJava</text>
</g>
<!-- classes&#45;&gt;compileTestJava -->
<g id="edge5" class="edge"><title>classes&#45;&gt;compileTestJava</title>
<path fill="none" stroke="black" d="M749.314,-447.876C735.712,-438.808 718.828,-427.552 704.139,-417.759"/>
<polygon fill="black" stroke="black" points="706.047,-414.825 695.785,-412.19 702.164,-420.649 706.047,-414.825"/>
</g>
<!-- test -->
<g id="node8" class="node"><title>test</title>
<polygon fill="lightcyan" stroke="black" points="675,-230 621,-230 621,-194 675,-194 675,-230"/>
<text text-anchor="middle" x="648" y="-208.3" font-family="Times,serif" font-size="14.00">test</text>
</g>
<!-- classes&#45;&gt;test -->
<g id="edge4" class="edge"><title>classes&#45;&gt;test</title>
<path fill="none" stroke="black" d="M771.024,-447.833C764.838,-422.69 751.651,-374.741 733,-337 714.898,-300.371 687.151,-262.172 668.323,-238.02"/>
<polygon fill="black" stroke="black" points="671.008,-235.771 662.066,-230.088 665.512,-240.107 671.008,-235.771"/>
</g>
<!-- javadoc -->
<g id="node13" class="node"><title>javadoc</title>
<polygon fill="lightcyan" stroke="black" points="443.25,-412 384.75,-412 384.75,-376 443.25,-376 443.25,-412"/>
<text text-anchor="middle" x="414" y="-390.3" font-family="Times,serif" font-size="14.00">javadoc</text>
</g>
<!-- classes&#45;&gt;javadoc -->
<g id="edge3" class="edge"><title>classes&#45;&gt;javadoc</title>
<path fill="none" stroke="black" d="M747.825,-465.435C690.639,-465.463 554.528,-460.818 450,-420 447.927,-419.19 445.857,-418.239 443.818,-417.19"/>
<polygon fill="black" stroke="black" points="445.544,-414.145 435.15,-412.091 441.995,-420.178 445.544,-414.145"/>
</g>
<!-- bundle -->
<g id="node15" class="node"><title>bundle</title>
<polygon fill="cyan" stroke="black" points="1209,-484 1155,-484 1155,-448 1209,-448 1209,-484"/>
<text text-anchor="middle" x="1182" y="-462.3" font-family="Times,serif" font-size="14.00">bundle</text>
</g>
<!-- classes&#45;&gt;bundle -->
<g id="edge15" class="edge"><title>classes&#45;&gt;bundle</title>
<path fill="none" stroke="black" d="M802.027,-466C916.209,-466 1030.39,-466 1144.57,-466"/>
<polygon fill="black" stroke="black" points="1144.91,-469.5 1154.91,-466 1144.91,-462.5 1144.91,-469.5"/>
</g>
<!-- findbugsMain -->
<g id="node26" class="node"><title>findbugsMain</title>
<polygon fill="cyan" stroke="black" points="117.25,-313 24.75,-313 24.75,-277 117.25,-277 117.25,-313"/>
<text text-anchor="middle" x="71" y="-291.3" font-family="Times,serif" font-size="14.00">findbugsMain</text>
</g>
<!-- classes&#45;&gt;findbugsMain -->
<g id="edge25" class="edge"><title>classes&#45;&gt;findbugsMain</title>
<path fill="none" stroke="black" d="M747.718,-464.283C682.101,-462.056 510.627,-453.255 372,-420 260.262,-393.195 234.216,-377.405 130,-329 123.048,-325.771 115.803,-322.042 108.867,-318.277"/>
<polygon fill="black" stroke="black" points="110.099,-314.958 99.6568,-313.166 106.702,-321.079 110.099,-314.958"/>
</g>
<!-- uploadArchives -->
<g id="node10" class="node"><title>uploadArchives</title>
<polygon fill="lightcyan" stroke="black" points="950,-313 848,-313 848,-277 950,-277 950,-313"/>
<text text-anchor="middle" x="899" y="-291.3" font-family="Times,serif" font-size="14.00">uploadArchives</text>
</g>
<!-- jar&#45;&gt;uploadArchives -->
<g id="edge9" class="edge"><title>jar&#45;&gt;uploadArchives</title>
<path fill="none" stroke="black" d="M856.297,-375.658C864.283,-360.761 875.915,-339.063 885.023,-322.073"/>
<polygon fill="black" stroke="black" points="888.144,-323.659 889.784,-313.192 881.974,-320.351 888.144,-323.659"/>
</g>
<!-- assemble -->
<g id="node11" class="node"><title>assemble</title>
<polygon fill="lightcyan" stroke="black" points="829.25,-313 762.75,-313 762.75,-277 829.25,-277 829.25,-313"/>
<text text-anchor="middle" x="796" y="-291.3" font-family="Times,serif" font-size="14.00">assemble</text>
</g>
<!-- jar&#45;&gt;assemble -->
<g id="edge10" class="edge"><title>jar&#45;&gt;assemble</title>
<path fill="none" stroke="black" d="M837.882,-375.658C830.05,-360.761 818.641,-339.063 809.708,-322.073"/>
<polygon fill="black" stroke="black" points="812.791,-320.414 805.039,-313.192 806.595,-323.672 812.791,-320.414"/>
</g>
<!-- testClasses -->
<g id="node7" class="node"><title>testClasses</title>
<polygon fill="lightcyan" stroke="black" points="638,-313 562,-313 562,-277 638,-277 638,-313"/>
<text text-anchor="middle" x="600" y="-291.3" font-family="Times,serif" font-size="14.00">testClasses</text>
</g>
<!-- compileTestJava&#45;&gt;testClasses -->
<g id="edge7" class="edge"><title>compileTestJava&#45;&gt;testClasses</title>
<path fill="none" stroke="black" d="M657.485,-375.658C646.635,-360.623 630.786,-338.66 618.476,-321.602"/>
<polygon fill="black" stroke="black" points="621.096,-319.252 612.406,-313.192 615.42,-323.349 621.096,-319.252"/>
</g>
<!-- processTestResources -->
<g id="node6" class="node"><title>processTestResources</title>
<polygon fill="lightcyan" stroke="black" points="598,-412 462,-412 462,-376 598,-376 598,-412"/>
<text text-anchor="middle" x="530" y="-390.3" font-family="Times,serif" font-size="14.00">processTestResources</text>
</g>
<!-- processTestResources&#45;&gt;testClasses -->
<g id="edge8" class="edge"><title>processTestResources&#45;&gt;testClasses</title>
<path fill="none" stroke="black" d="M542.515,-375.658C553.365,-360.623 569.214,-338.66 581.524,-321.602"/>
<polygon fill="black" stroke="black" points="584.58,-323.349 587.594,-313.192 578.904,-319.252 584.58,-323.349"/>
</g>
<!-- testClasses&#45;&gt;test -->
<g id="edge11" class="edge"><title>testClasses&#45;&gt;test</title>
<path fill="none" stroke="black" d="M610.18,-276.822C616.671,-265.868 625.208,-251.462 632.528,-239.108"/>
<polygon fill="black" stroke="black" points="635.748,-240.541 637.835,-230.153 629.726,-236.972 635.748,-240.541"/>
</g>
<!-- findbugsTest -->
<g id="node24" class="node"><title>findbugsTest</title>
<polygon fill="cyan" stroke="black" points="229.25,-313 142.75,-313 142.75,-277 229.25,-277 229.25,-313"/>
<text text-anchor="middle" x="186" y="-291.3" font-family="Times,serif" font-size="14.00">findbugsTest</text>
</g>
<!-- testClasses&#45;&gt;findbugsTest -->
<g id="edge26" class="edge"><title>testClasses&#45;&gt;findbugsTest</title>
<path fill="none" stroke="black" d="M561.639,-303.08C514.958,-312.463 433.618,-327.375 363,-333 336.196,-335.135 268.303,-338.582 242,-333 231.656,-330.805 221.664,-325.457 213.054,-319.443"/>
<polygon fill="black" stroke="black" points="215.029,-316.548 204.944,-313.301 210.803,-322.129 215.029,-316.548"/>
</g>
<!-- check -->
<g id="node9" class="node"><title>check</title>
<polygon fill="lightcyan" stroke="black" points="675,-147 621,-147 621,-111 675,-111 675,-147"/>
<text text-anchor="middle" x="648" y="-125.3" font-family="Times,serif" font-size="14.00">check</text>
</g>
<!-- test&#45;&gt;check -->
<g id="edge13" class="edge"><title>test&#45;&gt;check</title>
<path fill="none" stroke="black" d="M648,-193.822C648,-183.19 648,-169.306 648,-157.204"/>
<polygon fill="black" stroke="black" points="651.5,-157.153 648,-147.153 644.5,-157.153 651.5,-157.153"/>
</g>
<!-- jacocoTestReport -->
<g id="node27" class="node"><title>jacocoTestReport</title>
<polygon fill="cyan" stroke="black" points="360,-313 248,-313 248,-277 360,-277 360,-313"/>
<text text-anchor="middle" x="304" y="-291.3" font-family="Times,serif" font-size="14.00">jacocoTestReport</text>
</g>
<!-- test&#45;&gt;jacocoTestReport -->
<g id="edge31" class="edge"><title>test&#45;&gt;jacocoTestReport</title>
<path fill="none" stroke="black" d="M620.717,-214.367C582.176,-216.764 509.818,-222.985 450,-238 415.698,-246.61 378.499,-260.959 350.234,-272.976"/>
<polygon fill="black" stroke="black" points="348.808,-269.78 341.009,-276.95 351.577,-276.208 348.808,-269.78"/>
</g>
<!-- build -->
<g id="node12" class="node"><title>build</title>
<polygon fill="lightcyan" stroke="black" points="735,-75 681,-75 681,-39 735,-39 735,-75"/>
<text text-anchor="middle" x="708" y="-53.3" font-family="Times,serif" font-size="14.00">build</text>
</g>
<!-- check&#45;&gt;build -->
<g id="edge14" class="edge"><title>check&#45;&gt;build</title>
<path fill="none" stroke="black" d="M662.831,-110.697C670.025,-102.305 678.797,-92.0705 686.69,-82.8613"/>
<polygon fill="black" stroke="black" points="689.489,-84.9747 693.339,-75.1043 684.174,-80.4191 689.489,-84.9747"/>
</g>
<!-- assemble&#45;&gt;build -->
<g id="edge12" class="edge"><title>assemble&#45;&gt;build</title>
<path fill="none" stroke="black" d="M792.16,-276.864C784.189,-242.771 764.212,-164.435 736,-103 733.059,-96.5953 729.371,-89.9949 725.647,-83.8891"/>
<polygon fill="black" stroke="black" points="728.56,-81.9468 720.247,-75.3778 722.649,-85.6968 728.56,-81.9468"/>
</g>
<!-- cleanJava -->
<g id="node14" class="node"><title>cleanJava</title>
<polygon fill="lightcyan" stroke="black" points="584,-575 530,-575 530,-539 584,-539 584,-575"/>
<text text-anchor="middle" x="557" y="-553.3" font-family="Times,serif" font-size="14.00">clean</text>
</g>
<!-- bundle&#45;&gt;compileJava -->
<g id="edge16" class="edge"><title>bundle&#45;&gt;compileJava</title>
<path fill="none" stroke="red" d="M1154.82,-476.305C1112.06,-490.94 1028.37,-519.59 973.843,-538.254"/>
<polygon fill="red" stroke="red" points="972.68,-534.953 964.352,-541.503 974.947,-541.575 972.68,-534.953"/>
</g>
<!-- bundle&#45;&gt;jar -->
<g id="edge17" class="edge"><title>bundle&#45;&gt;jar</title>
<path fill="none" stroke="black" stroke-dasharray="5,2" d="M1154.87,-459.331C1095.16,-446.855 952.291,-417.001 884.25,-402.784"/>
<polygon fill="black" stroke="black" points="884.888,-399.341 874.384,-400.722 883.457,-406.193 884.888,-399.341"/>
</g>
<!-- bundle&#45;&gt;test -->
<g id="edge19" class="edge"><title>bundle&#45;&gt;test</title>
<path fill="none" stroke="black" d="M1154.89,-461.562C1110.65,-455.407 1025.78,-441.14 1005,-420 946.729,-360.732 1025.08,-292.122 962,-238 941.437,-220.357 764.535,-215.048 685.673,-213.55"/>
<polygon fill="black" stroke="black" points="685.283,-210.042 675.222,-213.363 685.158,-217.041 685.283,-210.042"/>
</g>
<!-- bundleTest -->
<g id="node16" class="node"><title>bundleTest</title>
<polygon fill="cyan" stroke="black" points="1232.25,-412 1155.75,-412 1155.75,-376 1232.25,-376 1232.25,-412"/>
<text text-anchor="middle" x="1194" y="-390.3" font-family="Times,serif" font-size="14.00">bundleTest</text>
</g>
<!-- bundle&#45;&gt;bundleTest -->
<g id="edge18" class="edge"><title>bundle&#45;&gt;bundleTest</title>
<path fill="none" stroke="black" d="M1184.97,-447.697C1186.29,-439.983 1187.88,-430.712 1189.35,-422.112"/>
<polygon fill="black" stroke="black" points="1192.83,-422.552 1191.07,-412.104 1185.93,-421.369 1192.83,-422.552"/>
</g>
<!-- release -->
<g id="node17" class="node"><title>release</title>
<polygon fill="cyan" stroke="black" points="1111,-412 1057,-412 1057,-376 1111,-376 1111,-412"/>
<text text-anchor="middle" x="1084" y="-390.3" font-family="Times,serif" font-size="14.00">release</text>
</g>
<!-- bundle&#45;&gt;release -->
<g id="edge20" class="edge"><title>bundle&#45;&gt;release</title>
<path fill="none" stroke="black" d="M1158.03,-447.876C1145.45,-438.893 1129.87,-427.763 1116.25,-418.034"/>
<polygon fill="black" stroke="black" points="1118.24,-415.154 1108.07,-412.19 1114.17,-420.85 1118.24,-415.154"/>
</g>
<!-- export -->
<g id="node21" class="node"><title>export</title>
<polygon fill="cyan" stroke="black" points="1311,-412 1257,-412 1257,-376 1311,-376 1311,-412"/>
<text text-anchor="middle" x="1284" y="-390.3" font-family="Times,serif" font-size="14.00">export</text>
</g>
<!-- bundle&#45;&gt;export -->
<g id="edge21" class="edge"><title>bundle&#45;&gt;export</title>
<path fill="none" stroke="black" d="M1206.95,-447.876C1220.04,-438.893 1236.26,-427.763 1250.44,-418.034"/>
<polygon fill="black" stroke="black" points="1252.69,-420.734 1258.95,-412.19 1248.73,-414.962 1252.69,-420.734"/>
</g>
<!-- bundleTest&#45;&gt;check -->
<g id="edge22" class="edge"><title>bundleTest&#45;&gt;check</title>
<path fill="none" stroke="black" d="M1193.6,-375.612C1191.88,-343.402 1183.39,-274.429 1143,-238 1074.8,-176.489 788.481,-143.466 685.28,-133.384"/>
<polygon fill="black" stroke="black" points="685.601,-129.899 675.312,-132.426 684.931,-136.867 685.601,-129.899"/>
</g>
<!-- releaseNeeded -->
<g id="node18" class="node"><title>releaseNeeded</title>
<polygon fill="cyan" stroke="black" points="1112.25,-313 1017.75,-313 1017.75,-277 1112.25,-277 1112.25,-313"/>
<text text-anchor="middle" x="1065" y="-291.3" font-family="Times,serif" font-size="14.00">releaseNeeded</text>
</g>
<!-- release&#45;&gt;releaseNeeded -->
<g id="edge23" class="edge"><title>release&#45;&gt;releaseNeeded</title>
<path fill="none" stroke="black" d="M1080.6,-375.658C1077.74,-361.037 1073.59,-339.864 1070.29,-323.021"/>
<polygon fill="black" stroke="black" points="1073.72,-322.332 1068.37,-313.192 1066.85,-323.678 1073.72,-322.332"/>
</g>
<!-- releaseNeeded&#45;&gt;releaseNeeded -->
<g id="edge24" class="edge"><title>releaseNeeded&#45;&gt;releaseNeeded</title>
<path fill="none" stroke="red" d="M1112.33,-309.921C1122.57,-308.462 1130,-303.488 1130,-295 1130,-289.562 1126.95,-285.567 1122.07,-283.014"/>
<polygon fill="red" stroke="red" points="1122.91,-279.613 1112.33,-280.079 1120.89,-286.315 1122.91,-279.613"/>
</g>
<!-- cleanBnd -->
<g id="node19" class="node"><title>cleanBnd</title>
<polygon fill="cyan" stroke="black" points="1493,-412 1439,-412 1439,-376 1493,-376 1493,-412"/>
<text text-anchor="middle" x="1466" y="-390.3" font-family="Times,serif" font-size="14.00">clean</text>
</g>
<!-- bndproperties -->
<g id="node20" class="node"><title>bndproperties</title>
<polygon fill="cyan" stroke="black" points="1420.25,-412 1329.75,-412 1329.75,-376 1420.25,-376 1420.25,-412"/>
<text text-anchor="middle" x="1375" y="-390.3" font-family="Times,serif" font-size="14.00">bndproperties</text>
</g>
<!-- wrapper -->
<g id="node22" class="node"><title>wrapper</title>
<polygon fill="cyan" stroke="black" points="1278.25,-575 1217.75,-575 1217.75,-539 1278.25,-539 1278.25,-575"/>
<text text-anchor="middle" x="1248" y="-553.3" font-family="Times,serif" font-size="14.00">wrapper</text>
</g>
<!-- findbugstest -->
<g id="node23" class="node"><title>findbugstest</title>
<polygon fill="cyan" stroke="black" points="228.25,-230 145.75,-230 145.75,-194 228.25,-194 228.25,-230"/>
<text text-anchor="middle" x="187" y="-208.3" font-family="Times,serif" font-size="14.00">findbugstest</text>
</g>
<!-- findbugstest&#45;&gt;check -->
<g id="edge30" class="edge"><title>findbugstest&#45;&gt;check</title>
<path fill="none" stroke="green" d="M228.697,-200.985C280.387,-188.834 371.291,-168.324 450,-155 505.82,-145.55 571.047,-137.979 610.932,-133.738"/>
<polygon fill="green" stroke="green" points="611.413,-137.206 620.993,-132.681 610.682,-130.245 611.413,-137.206"/>
</g>
<!-- findbugsTest&#45;&gt;findbugstest -->
<g id="edge28" class="edge"><title>findbugsTest&#45;&gt;findbugstest</title>
<path fill="none" stroke="black" d="M186.212,-276.822C186.343,-266.19 186.515,-252.306 186.664,-240.204"/>
<polygon fill="black" stroke="black" points="190.164,-240.196 186.788,-230.153 183.165,-240.109 190.164,-240.196"/>
</g>
<!-- findbugs -->
<g id="node25" class="node"><title>findbugs</title>
<polygon fill="cyan" stroke="black" points="110,-230 46,-230 46,-194 110,-194 110,-230"/>
<text text-anchor="middle" x="78" y="-208.3" font-family="Times,serif" font-size="14.00">findbugs</text>
</g>
<!-- findbugs&#45;&gt;check -->
<g id="edge29" class="edge"><title>findbugs&#45;&gt;check</title>
<path fill="none" stroke="green" d="M88.4495,-193.93C97.5977,-180.703 112.196,-163.28 130,-155 173.201,-134.908 499.102,-130.95 610.671,-130.182"/>
<polygon fill="green" stroke="green" points="610.805,-133.681 620.782,-130.117 610.76,-126.681 610.805,-133.681"/>
</g>
<!-- findbugsMain&#45;&gt;findbugs -->
<g id="edge27" class="edge"><title>findbugsMain&#45;&gt;findbugs</title>
<path fill="none" stroke="black" d="M72.4845,-276.822C73.4033,-266.19 74.6032,-252.306 75.6491,-240.204"/>
<polygon fill="black" stroke="black" points="79.1435,-240.417 76.5176,-230.153 72.1695,-239.815 79.1435,-240.417"/>
</g>
<!-- index -->
<g id="node28" class="node"><title>index</title>
<polygon fill="cyan" stroke="black" points="1799,-575 1745,-575 1745,-539 1799,-539 1799,-575"/>
<text text-anchor="middle" x="1772" y="-553.3" font-family="Times,serif" font-size="14.00">index</text>
</g>
<!-- clean -->
<g id="node29" class="node"><title>clean</title>
<polygon fill="lightcyan" stroke="black" points="1659,-575 1605,-575 1605,-539 1659,-539 1659,-575"/>
<text text-anchor="middle" x="1632" y="-553.3" font-family="Times,serif" font-size="14.00">clean</text>
</g>
<!-- cleanNeeded -->
<g id="node30" class="node"><title>cleanNeeded</title>
<polygon fill="cyan" stroke="black" points="1619,-484 1533,-484 1533,-448 1619,-448 1619,-484"/>
<text text-anchor="middle" x="1576" y="-462.3" font-family="Times,serif" font-size="14.00">cleanNeeded</text>
</g>
<!-- clean&#45;&gt;cleanNeeded -->
<g id="edge32" class="edge"><title>clean&#45;&gt;cleanNeeded</title>
<path fill="none" stroke="blue" d="M1621.2,-538.84C1612.99,-525.789 1601.56,-507.615 1592.24,-492.813"/>
<polygon fill="blue" stroke="blue" points="1595.05,-490.707 1586.76,-484.107 1589.13,-494.435 1595.05,-490.707"/>
</g>
<!-- distclean -->
<g id="node31" class="node"><title>distclean</title>
<polygon fill="cyan" stroke="black" points="1720.25,-484 1655.75,-484 1655.75,-448 1720.25,-448 1720.25,-484"/>
<text text-anchor="middle" x="1688" y="-462.3" font-family="Times,serif" font-size="14.00">distclean</text>
</g>
<!-- clean&#45;&gt;distclean -->
<g id="edge34" class="edge"><title>clean&#45;&gt;distclean</title>
<path fill="none" stroke="blue" d="M1642.8,-538.84C1651.01,-525.789 1662.44,-507.615 1671.76,-492.813"/>
<polygon fill="blue" stroke="blue" points="1674.87,-494.435 1677.24,-484.107 1668.95,-490.707 1674.87,-494.435"/>
</g>
<!-- cleanNeeded&#45;&gt;cleanNeeded -->
<g id="edge33" class="edge"><title>cleanNeeded&#45;&gt;cleanNeeded</title>
<path fill="none" stroke="red" d="M1619.04,-479.262C1629.35,-478.225 1637,-473.805 1637,-466 1637,-461 1633.86,-457.389 1628.89,-455.167"/>
<polygon fill="red" stroke="red" points="1629.58,-451.732 1619.04,-452.738 1627.91,-458.529 1629.58,-451.732"/>
</g>
<!-- distcleanNeeded -->
<g id="node32" class="node"><title>distcleanNeeded</title>
<polygon fill="cyan" stroke="black" points="1703,-412 1597,-412 1597,-376 1703,-376 1703,-412"/>
<text text-anchor="middle" x="1650" y="-390.3" font-family="Times,serif" font-size="14.00">distcleanNeeded</text>
</g>
<!-- distclean&#45;&gt;distcleanNeeded -->
<g id="edge35" class="edge"><title>distclean&#45;&gt;distcleanNeeded</title>
<path fill="none" stroke="black" d="M1678.61,-447.697C1674.24,-439.644 1668.94,-429.894 1664.1,-420.982"/>
<polygon fill="black" stroke="black" points="1667.13,-419.223 1659.29,-412.104 1660.98,-422.563 1667.13,-419.223"/>
</g>
<!-- distcleanNeeded&#45;&gt;distcleanNeeded -->
<g id="edge36" class="edge"><title>distcleanNeeded&#45;&gt;distcleanNeeded</title>
<path fill="none" stroke="red" d="M1703.26,-406.899C1713.63,-405.401 1721,-401.102 1721,-394 1721,-389.451 1717.98,-386.051 1713.08,-383.801"/>
<polygon fill="red" stroke="red" points="1713.83,-380.378 1703.26,-381.101 1711.97,-387.128 1713.83,-380.378"/>
</g>
</g>
</svg>
